[2026-04-02T11:30:03.354Z] ffmpeg version 2026-03-30-git-e54e117998-essentials_build-www.gyan.dev Copyright (c) 2000-2026 the FFmpeg developers
  built with gcc 15.2.0 (Rev11, Built by MSYS2 project)
  configuration: --enable-gpl --enable-version3 --enable-static --disable-w32threads --disable-autodetect --enable-cairo --enable-fontconfig --enable-iconv --enable-gnutls --enable-libxml2 --enable-gmp --enable-bzlib --enable-lzma --enable-zlib --enable-libsrt --enable-libssh --enable-libzmq --enable-avisynth --enable-sdl2 --enable-libwebp --enable-libx264 --enable-libx265 --enable-libxvid --enable-libaom --enable-libopenjpeg --enable-libvpx --enable-mediafoundation --enable-libass --enable-libfreetype --enable-libfribidi --enable-libharfbuzz --enable-libvidstab --enable-libvmaf --enable-libzimg --enable-amf --enable-cuda-llvm --enable-cuvid --enable-dxva2 --enable-d3d11va --enable-d3d12va --enable-ffnvcodec --enable-libvpl --enable-nvdec --enable-nvenc --enable-vaapi --enable-openal --enable-libgme --enable-libopenmpt --enable-libopencore-amrwb --enable-libmp3lame --enable-libtheora --enable-libvo-amrwbenc --enable-libgsm --enable-libopencore-amrnb --enable-libopus --enable-libspeex --enable-libvorbis --enable-librubberband

[2026-04-02T11:30:03.354Z]   libavutil      60. 29.100 / 60. 29.100
  libavcodec     62. 29.101 / 62. 29.101
  libavformat    62. 13.101 / 62. 13.101
  libavdevice    62.  4.100 / 62.  4.100
  libavfilter    11. 15.101 / 11. 15.101
  libswscale      9.  7.100 /  9.  7.100
  libswresample   6.  4.100 /  6.  4.100

[2026-04-02T11:30:06.143Z] Input #0, rtsp, from 'rtsp://admin:L24FEAD1@192.168.0.110:554/cam/realmonitor?channel=1&subtype=1':

[2026-04-02T11:30:06.143Z]   Metadata:
    title           : Media Server
  Duration: N/A, start: -0.064000, bitrate: N/A
  Stream #0:0: Video: h264 (Main), yuvj420p(pc, bt709, progressive), 640x352, 15 fps, 20 tbr, 90k tbn
  Stream #0:1: Audio: aac (LC), 16000 Hz, mono, fltp, start -0.064000

[2026-04-02T11:30:06.147Z] Stream mapping:
  Stream #0:0 -> #0:0 (copy)
  Stream #0:1 -> #0:1 (aac (native) -> aac (native))

[2026-04-02T11:30:06.147Z] Press [q] to stop, [?] for help

[2026-04-02T11:30:06.158Z] Output #0, hls, to 'D:\GT CRM WEB PROJECT\gtgroupcrmproject\public\temp\streams\e08aa559-e1a8-46b1-a1e2-5217615a316c\index.m3u8':
  Metadata:
    title           : Media Server
    encoder         : Lavf62.13.101

[2026-04-02T11:30:06.158Z]   Stream #0:0: Video: h264 (Main), yuvj420p(pc, bt709, progressive), 640x352, q=2-31, 15 fps, 20 tbr, 90k tbn
  Stream #0:1: Audio: aac (LC), 16000 Hz, mono, fltp, 69 kb/s
    Metadata:
      encoder         : Lavc62.29.101 aac

[2026-04-02T11:30:06.158Z] [hls @ 000001d2e7001840] Timestamps are unset in a packet for stream 0. This is deprecated and will stop working in the future. Fix your code to set the timestamps properly

[2026-04-02T11:30:06.656Z] frame=   35 fps=0.0 q=-1.0 size=N/A time=00:00:02.33 bitrate=N/A speed=4.58x elapsed=0:00:00.50    
[2026-04-02T11:30:07.171Z] frame=   43 fps= 42 q=-1.0 size=N/A time=00:00:02.88 bitrate=N/A speed=2.81x elapsed=0:00:01.02    
[2026-04-02T11:30:07.685Z] frame=   50 fps= 33 q=-1.0 size=N/A time=00:00:03.36 bitrate=N/A speed=2.19x elapsed=0:00:01.53    
[2026-04-02T11:30:08.212Z] frame=   59 fps= 29 q=-1.0 size=N/A time=00:00:03.93 bitrate=N/A speed= 1.9x elapsed=0:00:02.06    
[2026-04-02T11:30:08.399Z] [hls @ 000001d2e7001840] Opening 'D:\GT CRM WEB PROJECT\gtgroupcrmproject\public\temp\streams\e08aa559-e1a8-46b1-a1e2-5217615a316c\index0.ts' for writing

[2026-04-02T11:30:08.400Z] [hls @ 000001d2e7001840] Opening 'D:\GT CRM WEB PROJECT\gtgroupcrmproject\public\temp\streams\e08aa559-e1a8-46b1-a1e2-5217615a316c\index.m3u8.tmp' for writing

[2026-04-02T11:30:08.726Z] frame=   66 fps= 26 q=-1.0 size=N/A time=00:00:04.40 bitrate=N/A speed=1.71x elapsed=0:00:02.57    
[2026-04-02T11:30:09.242Z] frame=   74 fps= 24 q=-1.0 size=N/A time=00:00:04.93 bitrate=N/A speed=1.59x elapsed=0:00:03.09    
[2026-04-02T11:30:09.755Z] frame=   82 fps= 23 q=-1.0 size=N/A time=00:00:05.48 bitrate=N/A speed=1.52x elapsed=0:00:03.60    
[2026-04-02T11:30:10.270Z] frame=   89 fps= 22 q=-1.0 size=N/A time=00:00:05.93 bitrate=N/A speed=1.44x elapsed=0:00:04.12    
[2026-04-02T11:30:10.782Z] frame=   97 fps= 21 q=-1.0 size=N/A time=00:00:06.48 bitrate=N/A speed= 1.4x elapsed=0:00:04.63    
[2026-04-02T11:30:11.296Z] frame=  105 fps= 20 q=-1.0 size=N/A time=00:00:06.98 bitrate=N/A speed=1.36x elapsed=0:00:05.14    
[2026-04-02T11:30:11.810Z] frame=  113 fps= 20 q=-1.0 size=N/A time=00:00:07.53 bitrate=N/A speed=1.33x elapsed=0:00:05.66    
[2026-04-02T11:30:12.340Z] frame=  120 fps= 19 q=-1.0 size=N/A time=00:00:07.98 bitrate=N/A speed=1.29x elapsed=0:00:06.19    
[2026-04-02T11:30:12.449Z] [hls @ 000001d2e7001840] Opening 'D:\GT CRM WEB PROJECT\gtgroupcrmproject\public\temp\streams\e08aa559-e1a8-46b1-a1e2-5217615a316c\index1.ts' for writing

[2026-04-02T11:30:12.449Z] [hls @ 000001d2e7001840] Opening 'D:\GT CRM WEB PROJECT\gtgroupcrmproject\public\temp\streams\e08aa559-e1a8-46b1-a1e2-5217615a316c\index.m3u8.tmp' for writing

[2026-04-02T11:30:12.852Z] frame=  128 fps= 19 q=-1.0 size=N/A time=00:00:08.53 bitrate=N/A speed=1.27x elapsed=0:00:06.70    
[2026-04-02T11:30:13.367Z] frame=  136 fps= 19 q=-1.0 size=N/A time=00:00:09.08 bitrate=N/A speed=1.26x elapsed=0:00:07.22    
[2026-04-02T11:30:13.881Z] frame=  143 fps= 18 q=-1.0 size=N/A time=00:00:09.53 bitrate=N/A speed=1.23x elapsed=0:00:07.73    
[2026-04-02T11:30:14.392Z] frame=  151 fps= 18 q=-1.0 size=N/A time=00:00:10.08 bitrate=N/A speed=1.22x elapsed=0:00:08.24    
[2026-04-02T11:30:14.911Z] frame=  159 fps= 18 q=-1.0 size=N/A time=00:00:10.58 bitrate=N/A speed=1.21x elapsed=0:00:08.76    
[2026-04-02T11:30:15.424Z] frame=  167 fps= 18 q=-1.0 size=N/A time=00:00:11.13 bitrate=N/A speed= 1.2x elapsed=0:00:09.27    
[2026-04-02T11:30:15.939Z] frame=  174 fps= 18 q=-1.0 size=N/A time=00:00:11.58 bitrate=N/A speed=1.18x elapsed=0:00:09.79    
[2026-04-02T11:30:16.397Z] [hls @ 000001d2e7001840] Opening 'D:\GT CRM WEB PROJECT\gtgroupcrmproject\public\temp\streams\e08aa559-e1a8-46b1-a1e2-5217615a316c\index2.ts' for writing

[2026-04-02T11:30:16.398Z] [hls @ 000001d2e7001840] Opening 'D:\GT CRM WEB PROJECT\gtgroupcrmproject\public\temp\streams\e08aa559-e1a8-46b1-a1e2-5217615a316c\index.m3u8.tmp' for writing

[2026-04-02T11:30:16.454Z] frame=  182 fps= 18 q=-1.0 size=N/A time=00:00:12.13 bitrate=N/A speed=1.18x elapsed=0:00:10.30    
[2026-04-02T11:30:16.969Z] frame=  190 fps= 18 q=-1.0 size=N/A time=00:00:12.68 bitrate=N/A speed=1.17x elapsed=0:00:10.82    
[2026-04-02T11:30:17.485Z] frame=  197 fps= 17 q=-1.0 size=N/A time=00:00:13.16 bitrate=N/A speed=1.16x elapsed=0:00:11.33    
[2026-04-02T11:30:17.998Z] frame=  206 fps= 17 q=-1.0 size=N/A time=00:00:13.73 bitrate=N/A speed=1.16x elapsed=0:00:11.85    
[2026-04-02T11:30:18.527Z] frame=  213 fps= 17 q=-1.0 size=N/A time=00:00:14.18 bitrate=N/A speed=1.15x elapsed=0:00:12.37    
[2026-04-02T11:30:19.028Z] frame=  221 fps= 17 q=-1.0 size=N/A time=00:00:14.73 bitrate=N/A speed=1.14x elapsed=0:00:12.88    
[2026-04-02T11:30:19.555Z] frame=  229 fps= 17 q=-1.0 size=N/A time=00:00:15.28 bitrate=N/A speed=1.14x elapsed=0:00:13.40    
[2026-04-02T11:30:20.071Z] frame=  236 fps= 17 q=-1.0 size=N/A time=00:00:15.73 bitrate=N/A speed=1.13x elapsed=0:00:13.92    
[2026-04-02T11:30:20.445Z] [hls @ 000001d2e7001840] Opening 'D:\GT CRM WEB PROJECT\gtgroupcrmproject\public\temp\streams\e08aa559-e1a8-46b1-a1e2-5217615a316c\index3.ts' for writing

[2026-04-02T11:30:20.446Z] [hls @ 000001d2e7001840] Opening 'D:\GT CRM WEB PROJECT\gtgroupcrmproject\public\temp\streams\e08aa559-e1a8-46b1-a1e2-5217615a316c\index.m3u8.tmp' for writing

[2026-04-02T11:30:20.586Z] frame=  244 fps= 17 q=-1.0 size=N/A time=00:00:16.28 bitrate=N/A speed=1.13x elapsed=0:00:14.43    
[2026-04-02T11:30:21.097Z] frame=  252 fps= 17 q=-1.0 size=N/A time=00:00:16.78 bitrate=N/A speed=1.12x elapsed=0:00:14.94    
[2026-04-02T11:30:21.612Z] frame=  260 fps= 17 q=-1.0 size=N/A time=00:00:17.33 bitrate=N/A speed=1.12x elapsed=0:00:15.46    
[2026-04-02T11:30:22.126Z] frame=  267 fps= 17 q=-1.0 size=N/A time=00:00:17.78 bitrate=N/A speed=1.11x elapsed=0:00:15.97    
[2026-04-02T11:30:22.651Z] frame=  275 fps= 17 q=-1.0 size=N/A time=00:00:18.33 bitrate=N/A speed=1.11x elapsed=0:00:16.50    
[2026-04-02T11:30:23.166Z] frame=  283 fps= 17 q=-1.0 size=N/A time=00:00:18.88 bitrate=N/A speed=1.11x elapsed=0:00:17.01    
[2026-04-02T11:30:23.679Z] frame=  290 fps= 17 q=-1.0 size=N/A time=00:00:19.33 bitrate=N/A speed= 1.1x elapsed=0:00:17.53    
[2026-04-02T11:30:24.195Z] frame=  299 fps= 17 q=-1.0 size=N/A time=00:00:19.93 bitrate=N/A speed= 1.1x elapsed=0:00:18.04    
[2026-04-02T11:30:24.486Z] [hls @ 000001d2e7001840] Opening 'D:\GT CRM WEB PROJECT\gtgroupcrmproject\public\temp\streams\e08aa559-e1a8-46b1-a1e2-5217615a316c\index4.ts' for writing

[2026-04-02T11:30:24.486Z] [hls @ 000001d2e7001840] Opening 'D:\GT CRM WEB PROJECT\gtgroupcrmproject\public\temp\streams\e08aa559-e1a8-46b1-a1e2-5217615a316c\index.m3u8.tmp' for writing

[2026-04-02T11:30:24.708Z] frame=  306 fps= 16 q=-1.0 size=N/A time=00:00:20.38 bitrate=N/A speed= 1.1x elapsed=0:00:18.56    
[2026-04-02T11:30:25.223Z] frame=  314 fps= 16 q=-1.0 size=N/A time=00:00:20.93 bitrate=N/A speed= 1.1x elapsed=0:00:19.07    
[2026-04-02T11:30:25.736Z] frame=  321 fps= 16 q=-1.0 size=N/A time=00:00:21.38 bitrate=N/A speed=1.09x elapsed=0:00:19.58    
[2026-04-02T11:30:26.256Z] frame=  329 fps= 16 q=-1.0 size=N/A time=00:00:21.93 bitrate=N/A speed=1.09x elapsed=0:00:20.10    
[2026-04-02T11:30:26.767Z] frame=  337 fps= 16 q=-1.0 size=N/A time=00:00:22.48 bitrate=N/A speed=1.09x elapsed=0:00:20.62    
[2026-04-02T11:30:27.278Z] frame=  344 fps= 16 q=-1.0 size=N/A time=00:00:22.93 bitrate=N/A speed=1.09x elapsed=0:00:21.13    
[2026-04-02T11:30:27.794Z] frame=  352 fps= 16 q=-1.0 size=N/A time=00:00:23.48 bitrate=N/A speed=1.08x elapsed=0:00:21.64    
[2026-04-02T11:30:28.323Z] frame=  360 fps= 16 q=-1.0 size=N/A time=00:00:23.98 bitrate=N/A speed=1.08x elapsed=0:00:22.17    
[2026-04-02T11:30:28.441Z] [hls @ 000001d2e7001840] Opening 'D:\GT CRM WEB PROJECT\gtgroupcrmproject\public\temp\streams\e08aa559-e1a8-46b1-a1e2-5217615a316c\index5.ts' for writing

[2026-04-02T11:30:28.442Z] [hls @ 000001d2e7001840] Opening 'D:\GT CRM WEB PROJECT\gtgroupcrmproject\public\temp\streams\e08aa559-e1a8-46b1-a1e2-5217615a316c\index.m3u8.tmp' for writing

[2026-04-02T11:30:28.835Z] frame=  368 fps= 16 q=-1.0 size=N/A time=00:00:24.53 bitrate=N/A speed=1.08x elapsed=0:00:22.68    
[2026-04-02T11:30:29.350Z] frame=  376 fps= 16 q=-1.0 size=N/A time=00:00:25.08 bitrate=N/A speed=1.08x elapsed=0:00:23.20    
[2026-04-02T11:30:29.866Z] frame=  383 fps= 16 q=-1.0 size=N/A time=00:00:25.53 bitrate=N/A speed=1.08x elapsed=0:00:23.71    
[2026-04-02T11:30:30.380Z] frame=  391 fps= 16 q=-1.0 size=N/A time=00:00:26.08 bitrate=N/A speed=1.08x elapsed=0:00:24.23    
[2026-04-02T11:30:30.895Z] frame=  398 fps= 16 q=-1.0 size=N/A time=00:00:26.53 bitrate=N/A speed=1.07x elapsed=0:00:24.74    
[2026-04-02T11:30:31.407Z] frame=  407 fps= 16 q=-1.0 size=N/A time=00:00:27.13 bitrate=N/A speed=1.07x elapsed=0:00:25.26    
[2026-04-02T11:30:31.924Z] frame=  414 fps= 16 q=-1.0 size=N/A time=00:00:27.58 bitrate=N/A speed=1.07x elapsed=0:00:25.77    
[2026-04-02T11:30:32.435Z] frame=  422 fps= 16 q=-1.0 size=N/A time=00:00:28.13 bitrate=N/A speed=1.07x elapsed=0:00:26.28    
[2026-04-02T11:30:32.488Z] [hls @ 000001d2e7001840] Opening 'D:\GT CRM WEB PROJECT\gtgroupcrmproject\public\temp\streams\e08aa559-e1a8-46b1-a1e2-5217615a316c\index6.ts' for writing

[2026-04-02T11:30:32.489Z] [hls @ 000001d2e7001840] Opening 'D:\GT CRM WEB PROJECT\gtgroupcrmproject\public\temp\streams\e08aa559-e1a8-46b1-a1e2-5217615a316c\index.m3u8.tmp' for writing

[2026-04-02T11:30:32.950Z] frame=  430 fps= 16 q=-1.0 size=N/A time=00:00:28.68 bitrate=N/A speed=1.07x elapsed=0:00:26.80    
[2026-04-02T11:30:33.480Z] frame=  437 fps= 16 q=-1.0 size=N/A time=00:00:29.13 bitrate=N/A speed=1.07x elapsed=0:00:27.33    
[2026-04-02T11:30:33.996Z] frame=  445 fps= 16 q=-1.0 size=N/A time=00:00:29.68 bitrate=N/A speed=1.07x elapsed=0:00:27.84    
[2026-04-02T11:30:34.511Z] frame=  453 fps= 16 q=-1.0 size=N/A time=00:00:30.18 bitrate=N/A speed=1.06x elapsed=0:00:28.36    
[2026-04-02T11:30:35.022Z] frame=  461 fps= 16 q=-1.0 size=N/A time=00:00:30.73 bitrate=N/A speed=1.06x elapsed=0:00:28.87    
[2026-04-02T11:30:35.541Z] frame=  468 fps= 16 q=-1.0 size=N/A time=00:00:31.18 bitrate=N/A speed=1.06x elapsed=0:00:29.39    
[2026-04-02T11:30:36.057Z] frame=  476 fps= 16 q=-1.0 size=N/A time=00:00:31.73 bitrate=N/A speed=1.06x elapsed=0:00:29.91    
[2026-04-02T11:30:36.444Z] [hls @ 000001d2e7001840] Opening 'D:\GT CRM WEB PROJECT\gtgroupcrmproject\public\temp\streams\e08aa559-e1a8-46b1-a1e2-5217615a316c\index7.ts' for writing

[2026-04-02T11:30:36.445Z] [hls @ 000001d2e7001840] Opening 'D:\GT CRM WEB PROJECT\gtgroupcrmproject\public\temp\streams\e08aa559-e1a8-46b1-a1e2-5217615a316c\index.m3u8.tmp' for writing

[2026-04-02T11:30:36.572Z] frame=  484 fps= 16 q=-1.0 size=N/A time=00:00:32.28 bitrate=N/A speed=1.06x elapsed=0:00:30.42    
[2026-04-02T11:30:37.086Z] frame=  491 fps= 16 q=-1.0 size=N/A time=00:00:32.73 bitrate=N/A speed=1.06x elapsed=0:00:30.93    
[2026-04-02T11:30:37.601Z] frame=  500 fps= 16 q=-1.0 size=N/A time=00:00:33.33 bitrate=N/A speed=1.06x elapsed=0:00:31.45    
[2026-04-02T11:30:38.117Z] frame=  507 fps= 16 q=-1.0 size=N/A time=00:00:33.78 bitrate=N/A speed=1.06x elapsed=0:00:31.97    
[2026-04-02T11:30:38.631Z] frame=  515 fps= 16 q=-1.0 size=N/A time=00:00:34.33 bitrate=N/A speed=1.06x elapsed=0:00:32.48    
[2026-04-02T11:30:39.141Z] frame=  522 fps= 16 q=-1.0 size=N/A time=00:00:34.78 bitrate=N/A speed=1.05x elapsed=0:00:32.99    
[2026-04-02T11:30:39.669Z] frame=  530 fps= 16 q=-1.0 size=N/A time=00:00:35.34 bitrate=N/A speed=1.05x elapsed=0:00:33.52    
[2026-04-02T11:30:40.187Z] frame=  538 fps= 16 q=-1.0 size=N/A time=00:00:35.89 bitrate=N/A speed=1.05x elapsed=0:00:34.03    
[2026-04-02T11:30:40.478Z] [hls @ 000001d2e7001840] Opening 'D:\GT CRM WEB PROJECT\gtgroupcrmproject\public\temp\streams\e08aa559-e1a8-46b1-a1e2-5217615a316c\index8.ts' for writing

[2026-04-02T11:30:40.479Z] [hls @ 000001d2e7001840] Opening 'D:\GT CRM WEB PROJECT\gtgroupcrmproject\public\temp\streams\e08aa559-e1a8-46b1-a1e2-5217615a316c\index.m3u8.tmp' for writing

[2026-04-02T11:30:40.701Z] frame=  546 fps= 16 q=-1.0 size=N/A time=00:00:36.39 bitrate=N/A speed=1.05x elapsed=0:00:34.55    
[2026-04-02T11:30:41.217Z] frame=  554 fps= 16 q=-1.0 size=N/A time=00:00:36.94 bitrate=N/A speed=1.05x elapsed=0:00:35.06    
[2026-04-02T11:30:41.734Z] frame=  561 fps= 16 q=-1.0 size=N/A time=00:00:37.39 bitrate=N/A speed=1.05x elapsed=0:00:35.58    
[2026-04-02T11:30:42.259Z] frame=  569 fps= 16 q=-1.0 size=N/A time=00:00:37.94 bitrate=N/A speed=1.05x elapsed=0:00:36.11    
[2026-04-02T11:30:42.771Z] frame=  577 fps= 16 q=-1.0 size=N/A time=00:00:38.49 bitrate=N/A speed=1.05x elapsed=0:00:36.62    
[2026-04-02T11:30:43.286Z] frame=  584 fps= 16 q=-1.0 size=N/A time=00:00:38.94 bitrate=N/A speed=1.05x elapsed=0:00:37.13    
[2026-04-02T11:30:43.800Z] frame=  593 fps= 16 q=-1.0 size=N/A time=00:00:39.54 bitrate=N/A speed=1.05x elapsed=0:00:37.65    
[2026-04-02T11:30:44.315Z] frame=  600 fps= 16 q=-1.0 size=N/A time=00:00:39.99 bitrate=N/A speed=1.05x elapsed=0:00:38.16    
[2026-04-02T11:30:44.444Z] [hls @ 000001d2e7001840] Opening 'D:\GT CRM WEB PROJECT\gtgroupcrmproject\public\temp\streams\e08aa559-e1a8-46b1-a1e2-5217615a316c\index9.ts' for writing

[2026-04-02T11:30:44.445Z] [hls @ 000001d2e7001840] Opening 'D:\GT CRM WEB PROJECT\gtgroupcrmproject\public\temp\streams\e08aa559-e1a8-46b1-a1e2-5217615a316c\index.m3u8.tmp' for writing

[2026-04-02T11:30:44.830Z] frame=  608 fps= 16 q=-1.0 size=N/A time=00:00:40.54 bitrate=N/A speed=1.05x elapsed=0:00:38.68    
[2026-04-02T11:30:45.342Z] frame=  615 fps= 16 q=-1.0 size=N/A time=00:00:41.03 bitrate=N/A speed=1.05x elapsed=0:00:39.19    
[2026-04-02T11:30:45.857Z] frame=  623 fps= 16 q=-1.0 size=N/A time=00:00:41.55 bitrate=N/A speed=1.05x elapsed=0:00:39.71    
[2026-04-02T11:30:46.385Z] frame=  631 fps= 16 q=-1.0 size=N/A time=00:00:42.09 bitrate=N/A speed=1.05x elapsed=0:00:40.23    
[2026-04-02T11:30:46.900Z] frame=  639 fps= 16 q=-1.0 size=N/A time=00:00:42.59 bitrate=N/A speed=1.05x elapsed=0:00:40.75    
[2026-04-02T11:30:47.412Z] frame=  647 fps= 16 q=-1.0 size=N/A time=00:00:43.14 bitrate=N/A speed=1.05x elapsed=0:00:41.26    
[2026-04-02T11:30:47.928Z] frame=  654 fps= 16 q=-1.0 size=N/A time=00:00:43.59 bitrate=N/A speed=1.04x elapsed=0:00:41.78    
[2026-04-02T11:30:48.405Z] [hls @ 000001d2e7001840] Opening 'D:\GT CRM WEB PROJECT\gtgroupcrmproject\public\temp\streams\e08aa559-e1a8-46b1-a1e2-5217615a316c\index10.ts' for writing

[2026-04-02T11:30:48.406Z] [hls @ 000001d2e7001840] Opening 'D:\GT CRM WEB PROJECT\gtgroupcrmproject\public\temp\streams\e08aa559-e1a8-46b1-a1e2-5217615a316c\index.m3u8.tmp' for writing

[2026-04-02T11:30:48.446Z] frame=  662 fps= 16 q=-1.0 size=N/A time=00:00:44.14 bitrate=N/A speed=1.04x elapsed=0:00:42.29    
[2026-04-02T11:30:48.956Z] frame=  670 fps= 16 q=-1.0 size=N/A time=00:00:44.69 bitrate=N/A speed=1.04x elapsed=0:00:42.80    
[2026-04-02T11:30:49.467Z] frame=  677 fps= 16 q=-1.0 size=N/A time=00:00:45.15 bitrate=N/A speed=1.04x elapsed=0:00:43.32    
[2026-04-02T11:30:49.982Z] frame=  685 fps= 16 q=-1.0 size=N/A time=00:00:45.70 bitrate=N/A speed=1.04x elapsed=0:00:43.83    
[2026-04-02T11:30:50.497Z] frame=  693 fps= 16 q=-1.0 size=N/A time=00:00:46.20 bitrate=N/A speed=1.04x elapsed=0:00:44.34    
[2026-04-02T11:30:51.026Z] frame=  701 fps= 16 q=-1.0 size=N/A time=00:00:46.75 bitrate=N/A speed=1.04x elapsed=0:00:44.87    
[2026-04-02T11:30:51.538Z] frame=  708 fps= 16 q=-1.0 size=N/A time=00:00:47.24 bitrate=N/A speed=1.04x elapsed=0:00:45.39    
[2026-04-02T11:30:52.055Z] frame=  716 fps= 16 q=-1.0 size=N/A time=00:00:47.76 bitrate=N/A speed=1.04x elapsed=0:00:45.90    
[2026-04-02T11:30:52.449Z] [hls @ 000001d2e7001840] Opening 'D:\GT CRM WEB PROJECT\gtgroupcrmproject\public\temp\streams\e08aa559-e1a8-46b1-a1e2-5217615a316c\index11.ts' for writing

[2026-04-02T11:30:52.449Z] [hls @ 000001d2e7001840] Opening 'D:\GT CRM WEB PROJECT\gtgroupcrmproject\public\temp\streams\e08aa559-e1a8-46b1-a1e2-5217615a316c\index.m3u8.tmp' for writing

[2026-04-02T11:30:52.567Z] frame=  724 fps= 16 q=-1.0 size=N/A time=00:00:48.30 bitrate=N/A speed=1.04x elapsed=0:00:46.42    
[2026-04-02T11:30:53.080Z] frame=  731 fps= 16 q=-1.0 size=N/A time=00:00:48.75 bitrate=N/A speed=1.04x elapsed=0:00:46.93    
[2026-04-02T11:30:53.593Z] frame=  739 fps= 16 q=-1.0 size=N/A time=00:00:49.30 bitrate=N/A speed=1.04x elapsed=0:00:47.44    
[2026-04-02T11:30:54.120Z] frame=  747 fps= 16 q=-1.0 size=N/A time=00:00:49.80 bitrate=N/A speed=1.04x elapsed=0:00:47.97    
[2026-04-02T11:30:54.631Z] frame=  755 fps= 16 q=-1.0 size=N/A time=00:00:50.36 bitrate=N/A speed=1.04x elapsed=0:00:48.48    
[2026-04-02T11:30:55.144Z] frame=  763 fps= 16 q=-1.0 size=N/A time=00:00:50.91 bitrate=N/A speed=1.04x elapsed=0:00:48.99    
[2026-04-02T11:30:55.656Z] frame=  770 fps= 16 q=-1.0 size=N/A time=00:00:51.37 bitrate=N/A speed=1.04x elapsed=0:00:49.50    
[2026-04-02T11:30:56.173Z] frame=  778 fps= 16 q=-1.0 size=N/A time=00:00:51.91 bitrate=N/A speed=1.04x elapsed=0:00:50.02    
[2026-04-02T11:30:56.405Z] [hls @ 000001d2e7001840] Opening 'D:\GT CRM WEB PROJECT\gtgroupcrmproject\public\temp\streams\e08aa559-e1a8-46b1-a1e2-5217615a316c\index12.ts' for writing

[2026-04-02T11:30:56.405Z] [hls @ 000001d2e7001840] Opening 'D:\GT CRM WEB PROJECT\gtgroupcrmproject\public\temp\streams\e08aa559-e1a8-46b1-a1e2-5217615a316c\index.m3u8.tmp' for writing

[2026-04-02T11:30:56.692Z] frame=  785 fps= 16 q=-1.0 size=N/A time=00:00:52.37 bitrate=N/A speed=1.04x elapsed=0:00:50.54    
[2026-04-02T11:30:57.206Z] frame=  794 fps= 16 q=-1.0 size=N/A time=00:00:52.96 bitrate=N/A speed=1.04x elapsed=0:00:51.05    
[2026-04-02T11:30:57.720Z] frame=  801 fps= 16 q=-1.0 size=N/A time=00:00:53.41 bitrate=N/A speed=1.04x elapsed=0:00:51.57    
[2026-04-02T11:30:58.236Z] frame=  809 fps= 16 q=-1.0 size=N/A time=00:00:53.96 bitrate=N/A speed=1.04x elapsed=0:00:52.08    
[2026-04-02T11:30:58.751Z] frame=  817 fps= 16 q=-1.0 size=N/A time=00:00:54.51 bitrate=N/A speed=1.04x elapsed=0:00:52.60    
[2026-04-02T11:30:59.266Z] frame=  824 fps= 16 q=-1.0 size=N/A time=00:00:54.96 bitrate=N/A speed=1.03x elapsed=0:00:53.11    
[2026-04-02T11:30:59.781Z] frame=  832 fps= 16 q=-1.0 size=N/A time=00:00:55.51 bitrate=N/A speed=1.04x elapsed=0:00:53.63    
[2026-04-02T11:31:00.297Z] frame=  840 fps= 16 q=-1.0 size=N/A time=00:00:56.01 bitrate=N/A speed=1.03x elapsed=0:00:54.15    
[2026-04-02T11:31:00.448Z] [hls @ 000001d2e7001840] Opening 'D:\GT CRM WEB PROJECT\gtgroupcrmproject\public\temp\streams\e08aa559-e1a8-46b1-a1e2-5217615a316c\index13.ts' for writing

[2026-04-02T11:31:00.448Z] [hls @ 000001d2e7001840] Opening 'D:\GT CRM WEB PROJECT\gtgroupcrmproject\public\temp\streams\e08aa559-e1a8-46b1-a1e2-5217615a316c\index.m3u8.tmp' for writing

[2026-04-02T11:31:00.810Z] frame=  848 fps= 16 q=-1.0 size=N/A time=00:00:56.56 bitrate=N/A speed=1.03x elapsed=0:00:54.66    
[2026-04-02T11:31:01.337Z] frame=  855 fps= 15 q=-1.0 size=N/A time=00:00:57.01 bitrate=N/A speed=1.03x elapsed=0:00:55.19    
[2026-04-02T11:31:01.853Z] frame=  863 fps= 15 q=-1.0 size=N/A time=00:00:57.56 bitrate=N/A speed=1.03x elapsed=0:00:55.70    
[2026-04-02T11:31:02.366Z] frame=  871 fps= 15 q=-1.0 size=N/A time=00:00:58.11 bitrate=N/A speed=1.03x elapsed=0:00:56.21    
[2026-04-02T11:31:02.881Z] frame=  878 fps= 15 q=-1.0 size=N/A time=00:00:58.56 bitrate=N/A speed=1.03x elapsed=0:00:56.73    
[2026-04-02T11:31:03.398Z] frame=  887 fps= 15 q=-1.0 size=N/A time=00:00:59.16 bitrate=N/A speed=1.03x elapsed=0:00:57.25    
[2026-04-02T11:31:03.910Z] frame=  894 fps= 15 q=-1.0 size=N/A time=00:00:59.61 bitrate=N/A speed=1.03x elapsed=0:00:57.76    
[2026-04-02T11:31:04.423Z] frame=  902 fps= 15 q=-1.0 size=N/A time=00:01:00.17 bitrate=N/A speed=1.03x elapsed=0:00:58.27    
[2026-04-02T11:31:04.561Z] [hls @ 000001d2e7001840] Opening 'D:\GT CRM WEB PROJECT\gtgroupcrmproject\public\temp\streams\e08aa559-e1a8-46b1-a1e2-5217615a316c\index14.ts' for writing
[hls @ 000001d2e7001840] Opening 'D:\GT CRM WEB PROJECT\gtgroupcrmproject\public\temp\streams\e08aa559-e1a8-46b1-a1e2-5217615a316c\index.m3u8.tmp' for writing

[2026-04-02T11:31:04.936Z] frame=  909 fps= 15 q=-1.0 size=N/A time=00:01:00.62 bitrate=N/A speed=1.03x elapsed=0:00:58.78    
[2026-04-02T11:31:05.452Z] frame=  917 fps= 15 q=-1.0 size=N/A time=00:01:01.17 bitrate=N/A speed=1.03x elapsed=0:00:59.30    
[2026-04-02T11:31:05.980Z] frame=  925 fps= 15 q=-1.0 size=N/A time=00:01:01.72 bitrate=N/A speed=1.03x elapsed=0:00:59.83    
[2026-04-02T11:31:06.492Z] frame=  932 fps= 15 q=-1.0 size=N/A time=00:01:02.17 bitrate=N/A speed=1.03x elapsed=0:01:00.34    
[2026-04-02T11:31:07.008Z] frame=  941 fps= 15 q=-1.0 size=N/A time=00:01:02.77 bitrate=N/A speed=1.03x elapsed=0:01:00.86    
[2026-04-02T11:31:07.524Z] frame=  948 fps= 15 q=-1.0 size=N/A time=00:01:03.22 bitrate=N/A speed=1.03x elapsed=0:01:01.37    
[2026-04-02T11:31:08.039Z] frame=  956 fps= 15 q=-1.0 size=N/A time=00:01:03.77 bitrate=N/A speed=1.03x elapsed=0:01:01.89    
[2026-04-02T11:31:08.444Z] [hls @ 000001d2e7001840] Opening 'D:\GT CRM WEB PROJECT\gtgroupcrmproject\public\temp\streams\e08aa559-e1a8-46b1-a1e2-5217615a316c\index15.ts' for writing

[2026-04-02T11:31:08.445Z] [hls @ 000001d2e7001840] Opening 'D:\GT CRM WEB PROJECT\gtgroupcrmproject\public\temp\streams\e08aa559-e1a8-46b1-a1e2-5217615a316c\index.m3u8.tmp' for writing

[2026-04-02T11:31:08.551Z] frame=  964 fps= 15 q=-1.0 size=N/A time=00:01:04.32 bitrate=N/A speed=1.03x elapsed=0:01:02.40    
[2026-04-02T11:31:09.063Z] frame=  971 fps= 15 q=-1.0 size=N/A time=00:01:04.77 bitrate=N/A speed=1.03x elapsed=0:01:02.91    
[2026-04-02T11:31:09.580Z] frame=  979 fps= 15 q=-1.0 size=N/A time=00:01:05.33 bitrate=N/A speed=1.03x elapsed=0:01:03.43    
[2026-04-02T11:31:10.096Z] frame=  987 fps= 15 q=-1.0 size=N/A time=00:01:05.83 bitrate=N/A speed=1.03x elapsed=0:01:03.94    
[2026-04-02T11:31:10.610Z] frame=  995 fps= 15 q=-1.0 size=N/A time=00:01:06.38 bitrate=N/A speed=1.03x elapsed=0:01:04.46    
[2026-04-02T11:31:11.148Z] frame= 1002 fps= 15 q=-1.0 size=N/A time=00:01:06.83 bitrate=N/A speed=1.03x elapsed=0:01:04.97    
[2026-04-02T11:31:11.648Z] frame= 1010 fps= 15 q=-1.0 size=N/A time=00:01:07.38 bitrate=N/A speed=1.03x elapsed=0:01:05.49    
[2026-04-02T11:31:12.185Z] frame= 1018 fps= 15 q=-1.0 size=N/A time=00:01:07.93 bitrate=N/A speed=1.03x elapsed=0:01:06.02    
[2026-04-02T11:31:12.492Z] [hls @ 000001d2e7001840] Opening 'D:\GT CRM WEB PROJECT\gtgroupcrmproject\public\temp\streams\e08aa559-e1a8-46b1-a1e2-5217615a316c\index16.ts' for writing
[hls @ 000001d2e7001840] Opening 'D:\GT CRM WEB PROJECT\gtgroupcrmproject\public\temp\streams\e08aa559-e1a8-46b1-a1e2-5217615a316c\index.m3u8.tmp' for writing

[2026-04-02T11:31:12.807Z] frame= 1025 fps= 15 q=-1.0 size=N/A time=00:01:08.38 bitrate=N/A speed=1.03x elapsed=0:01:06.53    
[2026-04-02T11:31:13.192Z] frame= 1033 fps= 15 q=-1.0 size=N/A time=00:01:08.93 bitrate=N/A speed=1.03x elapsed=0:01:07.04    
[2026-04-02T11:31:13.705Z] frame= 1041 fps= 15 q=-1.0 size=N/A time=00:01:09.43 bitrate=N/A speed=1.03x elapsed=0:01:07.55    
[2026-04-02T11:31:14.219Z] frame= 1049 fps= 15 q=-1.0 size=N/A time=00:01:09.98 bitrate=N/A speed=1.03x elapsed=0:01:08.07    
[2026-04-02T11:31:14.732Z] frame= 1056 fps= 15 q=-1.0 size=N/A time=00:01:10.44 bitrate=N/A speed=1.03x elapsed=0:01:08.58    
[2026-04-02T11:31:15.261Z] frame= 1064 fps= 15 q=-1.0 size=N/A time=00:01:10.99 bitrate=N/A speed=1.03x elapsed=0:01:09.11    
[2026-04-02T11:31:15.771Z] frame= 1072 fps= 15 q=-1.0 size=N/A time=00:01:11.54 bitrate=N/A speed=1.03x elapsed=0:01:09.62    
[2026-04-02T11:31:16.282Z] frame= 1079 fps= 15 q=-1.0 size=N/A time=00:01:11.99 bitrate=N/A speed=1.03x elapsed=0:01:10.13    
[2026-04-02T11:31:16.482Z] [in#0/rtsp @ 000001d2e6ff7e80] max delay reached. need to consume packet
[in#0/rtsp @ 000001d2e6ff7e80] RTP: missed 1 packets

[2026-04-02T11:31:16.483Z] [hls @ 000001d2e7001840] Opening 'D:\GT CRM WEB PROJECT\gtgroupcrmproject\public\temp\streams\e08aa559-e1a8-46b1-a1e2-5217615a316c\index17.ts' for writing

[2026-04-02T11:31:16.484Z] [hls @ 000001d2e7001840] Opening 'D:\GT CRM WEB PROJECT\gtgroupcrmproject\public\temp\streams\e08aa559-e1a8-46b1-a1e2-5217615a316c\index.m3u8.tmp' for writing

[2026-04-02T11:31:16.795Z] frame= 1085 fps= 15 q=-1.0 size=N/A time=00:01:12.39 bitrate=N/A speed=1.02x elapsed=0:01:10.64    
[2026-04-02T11:31:17.320Z] frame= 1095 fps= 15 q=-1.0 size=N/A time=00:01:13.04 bitrate=N/A speed=1.03x elapsed=0:01:11.17    
[2026-04-02T11:31:17.856Z] frame= 1103 fps= 15 q=-1.0 size=N/A time=00:01:13.59 bitrate=N/A speed=1.03x elapsed=0:01:11.68    
[2026-04-02T11:31:18.347Z] frame= 1111 fps= 15 q=-1.0 size=N/A time=00:01:14.14 bitrate=N/A speed=1.03x elapsed=0:01:12.19    
[2026-04-02T11:31:18.860Z] frame= 1118 fps= 15 q=-1.0 size=N/A time=00:01:14.59 bitrate=N/A speed=1.03x elapsed=0:01:12.71    
[2026-04-02T11:31:19.374Z] frame= 1126 fps= 15 q=-1.0 size=N/A time=00:01:15.14 bitrate=N/A speed=1.03x elapsed=0:01:13.22    
[2026-04-02T11:31:19.890Z] frame= 1133 fps= 15 q=-1.0 size=N/A time=00:01:15.59 bitrate=N/A speed=1.03x elapsed=0:01:13.74    
[2026-04-02T11:31:20.405Z] frame= 1142 fps= 15 q=-1.0 size=N/A time=00:01:16.19 bitrate=N/A speed=1.03x elapsed=0:01:14.25    
[2026-04-02T11:31:20.522Z] [hls @ 000001d2e7001840] Opening 'D:\GT CRM WEB PROJECT\gtgroupcrmproject\public\temp\streams\e08aa559-e1a8-46b1-a1e2-5217615a316c\index18.ts' for writing

[2026-04-02T11:31:20.523Z] [hls @ 000001d2e7001840] Opening 'D:\GT CRM WEB PROJECT\gtgroupcrmproject\public\temp\streams\e08aa559-e1a8-46b1-a1e2-5217615a316c\index.m3u8.tmp' for writing

[2026-04-02T11:31:20.919Z] frame= 1149 fps= 15 q=-1.0 size=N/A time=00:01:16.64 bitrate=N/A speed=1.03x elapsed=0:01:14.77    
[2026-04-02T11:31:21.447Z] frame= 1157 fps= 15 q=-1.0 size=N/A time=00:01:17.19 bitrate=N/A speed=1.03x elapsed=0:01:15.29    
[2026-04-02T11:31:21.963Z] frame= 1165 fps= 15 q=-1.0 size=N/A time=00:01:17.74 bitrate=N/A speed=1.03x elapsed=0:01:15.81    
[2026-04-02T11:31:22.477Z] frame= 1172 fps= 15 q=-1.0 size=N/A time=00:01:18.19 bitrate=N/A speed=1.02x elapsed=0:01:16.33    
[2026-04-02T11:31:22.993Z] frame= 1180 fps= 15 q=-1.0 size=N/A time=00:01:18.74 bitrate=N/A speed=1.02x elapsed=0:01:16.84    
[2026-04-02T11:31:23.508Z] frame= 1188 fps= 15 q=-1.0 size=N/A time=00:01:19.24 bitrate=N/A speed=1.02x elapsed=0:01:17.36    
[2026-04-02T11:31:24.024Z] frame= 1196 fps= 15 q=-1.0 size=N/A time=00:01:19.79 bitrate=N/A speed=1.02x elapsed=0:01:17.87    
[2026-04-02T11:31:24.481Z] [hls @ 000001d2e7001840] Opening 'D:\GT CRM WEB PROJECT\gtgroupcrmproject\public\temp\streams\e08aa559-e1a8-46b1-a1e2-5217615a316c\index19.ts' for writing

[2026-04-02T11:31:24.481Z] [hls @ 000001d2e7001840] Opening 'D:\GT CRM WEB PROJECT\gtgroupcrmproject\public\temp\streams\e08aa559-e1a8-46b1-a1e2-5217615a316c\index.m3u8.tmp' for writing

[2026-04-02T11:31:24.537Z] frame= 1203 fps= 15 q=-1.0 size=N/A time=00:01:20.25 bitrate=N/A speed=1.02x elapsed=0:01:18.38    
[2026-04-02T11:31:25.053Z] frame= 1211 fps= 15 q=-1.0 size=N/A time=00:01:20.80 bitrate=N/A speed=1.02x elapsed=0:01:18.90    
[2026-04-02T11:31:25.563Z] frame= 1219 fps= 15 q=-1.0 size=N/A time=00:01:21.35 bitrate=N/A speed=1.02x elapsed=0:01:19.41    
[2026-04-02T11:31:26.079Z] frame= 1226 fps= 15 q=-1.0 size=N/A time=00:01:21.80 bitrate=N/A speed=1.02x elapsed=0:01:19.93    
[2026-04-02T11:31:26.595Z] frame= 1235 fps= 15 q=-1.0 size=N/A time=00:01:22.40 bitrate=N/A speed=1.02x elapsed=0:01:20.44    
[2026-04-02T11:31:27.108Z] frame= 1242 fps= 15 q=-1.0 size=N/A time=00:01:22.85 bitrate=N/A speed=1.02x elapsed=0:01:20.96    
[2026-04-02T11:31:27.622Z] frame= 1250 fps= 15 q=-1.0 size=N/A time=00:01:23.40 bitrate=N/A speed=1.02x elapsed=0:01:21.47    
[2026-04-02T11:31:28.151Z] frame= 1258 fps= 15 q=-1.0 size=N/A time=00:01:23.95 bitrate=N/A speed=1.02x elapsed=0:01:22.00    
[2026-04-02T11:31:28.524Z] [hls @ 000001d2e7001840] Opening 'D:\GT CRM WEB PROJECT\gtgroupcrmproject\public\temp\streams\e08aa559-e1a8-46b1-a1e2-5217615a316c\index20.ts' for writing

[2026-04-02T11:31:28.525Z] [hls @ 000001d2e7001840] Opening 'D:\GT CRM WEB PROJECT\gtgroupcrmproject\public\temp\streams\e08aa559-e1a8-46b1-a1e2-5217615a316c\index.m3u8.tmp' for writing

[2026-04-02T11:31:28.661Z] frame= 1265 fps= 15 q=-1.0 size=N/A time=00:01:24.40 bitrate=N/A speed=1.02x elapsed=0:01:22.51    
[2026-04-02T11:31:29.176Z] frame= 1273 fps= 15 q=-1.0 size=N/A time=00:01:24.95 bitrate=N/A speed=1.02x elapsed=0:01:23.02    
[2026-04-02T11:31:29.689Z] frame= 1280 fps= 15 q=-1.0 size=N/A time=00:01:25.41 bitrate=N/A speed=1.02x elapsed=0:01:23.54    
[2026-04-02T11:31:30.203Z] frame= 1289 fps= 15 q=-1.0 size=N/A time=00:01:26.01 bitrate=N/A speed=1.02x elapsed=0:01:24.05    
[2026-04-02T11:31:30.718Z] frame= 1296 fps= 15 q=-1.0 size=N/A time=00:01:26.46 bitrate=N/A speed=1.02x elapsed=0:01:24.57    
[2026-04-02T11:31:31.232Z] frame= 1304 fps= 15 q=-1.0 size=N/A time=00:01:27.01 bitrate=N/A speed=1.02x elapsed=0:01:25.08    
[2026-04-02T11:31:31.749Z] frame= 1312 fps= 15 q=-1.0 size=N/A time=00:01:27.56 bitrate=N/A speed=1.02x elapsed=0:01:25.60    
[2026-04-02T11:31:32.263Z] frame= 1319 fps= 15 q=-1.0 size=N/A time=00:01:28.01 bitrate=N/A speed=1.02x elapsed=0:01:26.11    
[2026-04-02T11:31:32.482Z] [hls @ 000001d2e7001840] Opening 'D:\GT CRM WEB PROJECT\gtgroupcrmproject\public\temp\streams\e08aa559-e1a8-46b1-a1e2-5217615a316c\index21.ts' for writing

[2026-04-02T11:31:32.483Z] [hls @ 000001d2e7001840] Opening 'D:\GT CRM WEB PROJECT\gtgroupcrmproject\public\temp\streams\e08aa559-e1a8-46b1-a1e2-5217615a316c\index.m3u8.tmp' for writing

[2026-04-02T11:31:32.790Z] frame= 1327 fps= 15 q=-1.0 size=N/A time=00:01:28.56 bitrate=N/A speed=1.02x elapsed=0:01:26.64    
[2026-04-02T11:31:33.304Z] frame= 1335 fps= 15 q=-1.0 size=N/A time=00:01:29.06 bitrate=N/A speed=1.02x elapsed=0:01:27.15    
[2026-04-02T11:31:33.817Z] frame= 1343 fps= 15 q=-1.0 size=N/A time=00:01:29.61 bitrate=N/A speed=1.02x elapsed=0:01:27.66    
[2026-04-02T11:31:34.331Z] frame= 1350 fps= 15 q=-1.0 size=N/A time=00:01:30.06 bitrate=N/A speed=1.02x elapsed=0:01:28.18    
[2026-04-02T11:31:34.844Z] frame= 1358 fps= 15 q=-1.0 size=N/A time=00:01:30.61 bitrate=N/A speed=1.02x elapsed=0:01:28.69    
[2026-04-02T11:31:35.356Z] frame= 1366 fps= 15 q=-1.0 size=N/A time=00:01:31.16 bitrate=N/A speed=1.02x elapsed=0:01:29.20    
[2026-04-02T11:31:35.884Z] frame= 1373 fps= 15 q=-1.0 size=N/A time=00:01:31.61 bitrate=N/A speed=1.02x elapsed=0:01:29.73    
[2026-04-02T11:31:36.399Z] frame= 1382 fps= 15 q=-1.0 size=N/A time=00:01:32.21 bitrate=N/A speed=1.02x elapsed=0:01:30.25    
[2026-04-02T11:31:36.531Z] [hls @ 000001d2e7001840] Opening 'D:\GT CRM WEB PROJECT\gtgroupcrmproject\public\temp\streams\e08aa559-e1a8-46b1-a1e2-5217615a316c\index22.ts' for writing

[2026-04-02T11:31:36.532Z] [hls @ 000001d2e7001840] Opening 'D:\GT CRM WEB PROJECT\gtgroupcrmproject\public\temp\streams\e08aa559-e1a8-46b1-a1e2-5217615a316c\index.m3u8.tmp' for writing

[2026-04-02T11:31:36.909Z] frame= 1389 fps= 15 q=-1.0 size=N/A time=00:01:32.66 bitrate=N/A speed=1.02x elapsed=0:01:30.76    
[2026-04-02T11:31:37.424Z] frame= 1397 fps= 15 q=-1.0 size=N/A time=00:01:33.21 bitrate=N/A speed=1.02x elapsed=0:01:31.27    
[2026-04-02T11:31:37.941Z] frame= 1404 fps= 15 q=-1.0 size=N/A time=00:01:33.66 bitrate=N/A speed=1.02x elapsed=0:01:31.79    
[2026-04-02T11:31:38.455Z] frame= 1412 fps= 15 q=-1.0 size=N/A time=00:01:34.21 bitrate=N/A speed=1.02x elapsed=0:01:32.30    
[2026-04-02T11:31:38.970Z] frame= 1420 fps= 15 q=-1.0 size=N/A time=00:01:34.76 bitrate=N/A speed=1.02x elapsed=0:01:32.82    
[2026-04-02T11:31:39.484Z] frame= 1427 fps= 15 q=-1.0 size=N/A time=00:01:35.21 bitrate=N/A speed=1.02x elapsed=0:01:33.33    
[2026-04-02T11:31:40.000Z] frame= 1436 fps= 15 q=-1.0 size=N/A time=00:01:35.81 bitrate=N/A speed=1.02x elapsed=0:01:33.85    
[2026-04-02T11:31:40.516Z] frame= 1443 fps= 15 q=-1.0 size=N/A time=00:01:36.26 bitrate=N/A speed=1.02x elapsed=0:01:34.36    
[2026-04-02T11:31:40.564Z] [hls @ 000001d2e7001840] Opening 'D:\GT CRM WEB PROJECT\gtgroupcrmproject\public\temp\streams\e08aa559-e1a8-46b1-a1e2-5217615a316c\index23.ts' for writing

[2026-04-02T11:31:40.566Z] [hls @ 000001d2e7001840] Opening 'D:\GT CRM WEB PROJECT\gtgroupcrmproject\public\temp\streams\e08aa559-e1a8-46b1-a1e2-5217615a316c\index.m3u8.tmp' for writing

[2026-04-02T11:31:41.041Z] frame= 1451 fps= 15 q=-1.0 size=N/A time=00:01:36.81 bitrate=N/A speed=1.02x elapsed=0:01:34.89    
[2026-04-02T11:31:41.558Z] frame= 1459 fps= 15 q=-1.0 size=N/A time=00:01:37.36 bitrate=N/A speed=1.02x elapsed=0:01:35.41    
[2026-04-02T11:31:42.072Z] frame= 1466 fps= 15 q=-1.0 size=N/A time=00:01:37.81 bitrate=N/A speed=1.02x elapsed=0:01:35.92    
[2026-04-02T11:31:42.586Z] frame= 1474 fps= 15 q=-1.0 size=N/A time=00:01:38.36 bitrate=N/A speed=1.02x elapsed=0:01:36.43    
[2026-04-02T11:31:43.101Z] frame= 1482 fps= 15 q=-1.0 size=N/A time=00:01:38.86 bitrate=N/A speed=1.02x elapsed=0:01:36.95    
[2026-04-02T11:31:43.610Z] frame= 1490 fps= 15 q=-1.0 size=N/A time=00:01:39.41 bitrate=N/A speed=1.02x elapsed=0:01:37.46    
[2026-04-02T11:31:44.125Z] frame= 1497 fps= 15 q=-1.0 size=N/A time=00:01:39.86 bitrate=N/A speed=1.02x elapsed=0:01:37.97    
[2026-04-02T11:31:44.397Z] [vost#0:0/copy @ 000001d2e7094180] Non-monotonic DTS; previous: 9008883, current: 9004926; changing to 9008884. This may result in incorrect timestamps in the output file.

[2026-04-02T11:31:44.533Z] [hls @ 000001d2e7001840] Opening 'D:\GT CRM WEB PROJECT\gtgroupcrmproject\public\temp\streams\e08aa559-e1a8-46b1-a1e2-5217615a316c\index24.ts' for writing

[2026-04-02T11:31:44.533Z] [hls @ 000001d2e7001840] Opening 'D:\GT CRM WEB PROJECT\gtgroupcrmproject\public\temp\streams\e08aa559-e1a8-46b1-a1e2-5217615a316c\index.m3u8.tmp' for writing

[2026-04-02T11:31:44.641Z] frame= 1505 fps= 15 q=-1.0 size=N/A time=00:01:40.32 bitrate=N/A speed=1.02x elapsed=0:01:38.49    
[2026-04-02T11:31:45.154Z] frame= 1513 fps= 15 q=-1.0 size=N/A time=00:01:40.87 bitrate=N/A speed=1.02x elapsed=0:01:39.00    
[2026-04-02T11:31:45.684Z] frame= 1520 fps= 15 q=-1.0 size=N/A time=00:01:41.32 bitrate=N/A speed=1.02x elapsed=0:01:39.53    
[2026-04-02T11:31:46.200Z] frame= 1529 fps= 15 q=-1.0 size=N/A time=00:01:41.92 bitrate=N/A speed=1.02x elapsed=0:01:40.05    
[2026-04-02T11:31:46.728Z] frame= 1536 fps= 15 q=-1.0 size=N/A time=00:01:42.37 bitrate=N/A speed=1.02x elapsed=0:01:40.58    
[2026-04-02T11:31:47.245Z] frame= 1544 fps= 15 q=-1.0 size=N/A time=00:01:42.92 bitrate=N/A speed=1.02x elapsed=0:01:41.09    
[2026-04-02T11:31:47.759Z] frame= 1552 fps= 15 q=-1.0 size=N/A time=00:01:43.47 bitrate=N/A speed=1.02x elapsed=0:01:41.61    
[2026-04-02T11:31:48.275Z] frame= 1559 fps= 15 q=-1.0 size=N/A time=00:01:43.92 bitrate=N/A speed=1.02x elapsed=0:01:42.12    
[2026-04-02T11:31:48.440Z] [hls @ 000001d2e7001840] Opening 'D:\GT CRM WEB PROJECT\gtgroupcrmproject\public\temp\streams\e08aa559-e1a8-46b1-a1e2-5217615a316c\index25.ts' for writing

[2026-04-02T11:31:48.441Z] [hls @ 000001d2e7001840] Opening 'D:\GT CRM WEB PROJECT\gtgroupcrmproject\public\temp\streams\e08aa559-e1a8-46b1-a1e2-5217615a316c\index.m3u8.tmp' for writing

[2026-04-02T11:31:48.779Z] frame= 1567 fps= 15 q=-1.0 size=N/A time=00:01:44.47 bitrate=N/A speed=1.02x elapsed=0:01:42.63    
[2026-04-02T11:31:49.300Z] frame= 1575 fps= 15 q=-1.0 size=N/A time=00:01:44.97 bitrate=N/A speed=1.02x elapsed=0:01:43.15    
[2026-04-02T11:31:49.813Z] frame= 1583 fps= 15 q=-1.0 size=N/A time=00:01:45.52 bitrate=N/A speed=1.02x elapsed=0:01:43.66    
[2026-04-02T11:31:50.328Z] frame= 1590 fps= 15 q=-1.0 size=N/A time=00:01:45.97 bitrate=N/A speed=1.02x elapsed=0:01:44.18    
[2026-04-02T11:31:50.844Z] frame= 1598 fps= 15 q=-1.0 size=N/A time=00:01:46.52 bitrate=N/A speed=1.02x elapsed=0:01:44.69    
[2026-04-02T11:31:51.357Z] frame= 1606 fps= 15 q=-1.0 size=N/A time=00:01:47.07 bitrate=N/A speed=1.02x elapsed=0:01:45.21    
[2026-04-02T11:31:51.874Z] frame= 1613 fps= 15 q=-1.0 size=N/A time=00:01:47.52 bitrate=N/A speed=1.02x elapsed=0:01:45.72    
[2026-04-02T11:31:52.391Z] frame= 1621 fps= 15 q=-1.0 size=N/A time=00:01:48.07 bitrate=N/A speed=1.02x elapsed=0:01:46.24    
[2026-04-02T11:31:52.405Z] [hls @ 000001d2e7001840] Opening 'D:\GT CRM WEB PROJECT\gtgroupcrmproject\public\temp\streams\e08aa559-e1a8-46b1-a1e2-5217615a316c\index26.ts' for writing

[2026-04-02T11:31:52.406Z] [hls @ 000001d2e7001840] Opening 'D:\GT CRM WEB PROJECT\gtgroupcrmproject\public\temp\streams\e08aa559-e1a8-46b1-a1e2-5217615a316c\index.m3u8.tmp' for writing

[2026-04-02T11:31:52.907Z] frame= 1629 fps= 15 q=-1.0 size=N/A time=00:01:48.57 bitrate=N/A speed=1.02x elapsed=0:01:46.75    
[2026-04-02T11:31:53.423Z] frame= 1637 fps= 15 q=-1.0 size=N/A time=00:01:49.12 bitrate=N/A speed=1.02x elapsed=0:01:47.27    
[2026-04-02T11:31:53.943Z] frame= 1644 fps= 15 q=-1.0 size=N/A time=00:01:49.59 bitrate=N/A speed=1.02x elapsed=0:01:47.79    
[2026-04-02T11:31:54.460Z] frame= 1652 fps= 15 q=-1.0 size=N/A time=00:01:50.16 bitrate=N/A speed=1.02x elapsed=0:01:48.31    
[2026-04-02T11:31:54.978Z] frame= 1660 fps= 15 q=-1.0 size=N/A time=00:01:50.68 bitrate=N/A speed=1.02x elapsed=0:01:48.83    
[2026-04-02T11:31:55.495Z] frame= 1668 fps= 15 q=-1.0 size=N/A time=00:01:51.20 bitrate=N/A speed=1.02x elapsed=0:01:49.34    
[2026-04-02T11:31:56.010Z] frame= 1676 fps= 15 q=-1.0 size=N/A time=00:01:51.73 bitrate=N/A speed=1.02x elapsed=0:01:49.86    
[2026-04-02T11:31:56.362Z] [hls @ 000001d2e7001840] Opening 'D:\GT CRM WEB PROJECT\gtgroupcrmproject\public\temp\streams\e08aa559-e1a8-46b1-a1e2-5217615a316c\index27.ts' for writing

[2026-04-02T11:31:56.362Z] [hls @ 000001d2e7001840] Opening 'D:\GT CRM WEB PROJECT\gtgroupcrmproject\public\temp\streams\e08aa559-e1a8-46b1-a1e2-5217615a316c\index.m3u8.tmp' for writing

[2026-04-02T11:31:56.526Z] frame= 1683 fps= 15 q=-1.0 size=N/A time=00:01:52.20 bitrate=N/A speed=1.02x elapsed=0:01:50.37    
[2026-04-02T11:31:57.039Z] frame= 1691 fps= 15 q=-1.0 size=N/A time=00:01:52.73 bitrate=N/A speed=1.02x elapsed=0:01:50.89    
[2026-04-02T11:31:57.552Z] frame= 1699 fps= 15 q=-1.0 size=N/A time=00:01:53.28 bitrate=N/A speed=1.02x elapsed=0:01:51.40    
[2026-04-02T11:31:58.068Z] frame= 1706 fps= 15 q=-1.0 size=N/A time=00:01:53.76 bitrate=N/A speed=1.02x elapsed=0:01:51.92    
[2026-04-02T11:31:58.582Z] frame= 1714 fps= 15 q=-1.0 size=N/A time=00:01:54.28 bitrate=N/A speed=1.02x elapsed=0:01:52.43    
[2026-04-02T11:31:59.098Z] frame= 1722 fps= 15 q=-1.0 size=N/A time=00:01:54.78 bitrate=N/A speed=1.02x elapsed=0:01:52.95    
[2026-04-02T11:31:59.617Z] frame= 1730 fps= 15 q=-1.0 size=N/A time=00:01:55.34 bitrate=N/A speed=1.02x elapsed=0:01:53.47    
[2026-04-02T11:32:00.129Z] frame= 1737 fps= 15 q=-1.0 size=N/A time=00:01:55.80 bitrate=N/A speed=1.02x elapsed=0:01:53.98    
[2026-04-02T11:32:00.408Z] [hls @ 000001d2e7001840] Opening 'D:\GT CRM WEB PROJECT\gtgroupcrmproject\public\temp\streams\e08aa559-e1a8-46b1-a1e2-5217615a316c\index28.ts' for writing

[2026-04-02T11:32:00.408Z] [hls @ 000001d2e7001840] Opening 'D:\GT CRM WEB PROJECT\gtgroupcrmproject\public\temp\streams\e08aa559-e1a8-46b1-a1e2-5217615a316c\index.m3u8.tmp' for writing

[2026-04-02T11:32:00.644Z] frame= 1745 fps= 15 q=-1.0 size=N/A time=00:01:56.36 bitrate=N/A speed=1.02x elapsed=0:01:54.49    
[2026-04-02T11:32:01.160Z] frame= 1753 fps= 15 q=-1.0 size=N/A time=00:01:56.89 bitrate=N/A speed=1.02x elapsed=0:01:55.01    
[2026-04-02T11:32:01.676Z] frame= 1760 fps= 15 q=-1.0 size=N/A time=00:01:57.34 bitrate=N/A speed=1.02x elapsed=0:01:55.52    
[2026-04-02T11:32:02.193Z] frame= 1768 fps= 15 q=-1.0 size=N/A time=00:01:57.89 bitrate=N/A speed=1.02x elapsed=0:01:56.04    
[2026-04-02T11:32:02.711Z] frame= 1776 fps= 15 q=-1.0 size=N/A time=00:01:58.39 bitrate=N/A speed=1.02x elapsed=0:01:56.56    
[2026-04-02T11:32:03.229Z] frame= 1784 fps= 15 q=-1.0 size=N/A time=00:01:58.94 bitrate=N/A speed=1.02x elapsed=0:01:57.08    
[2026-04-02T11:32:03.744Z] frame= 1791 fps= 15 q=-1.0 size=N/A time=00:01:59.44 bitrate=N/A speed=1.02x elapsed=0:01:57.59    
[2026-04-02T11:32:04.259Z] frame= 1799 fps= 15 q=-1.0 size=N/A time=00:01:59.96 bitrate=N/A speed=1.02x elapsed=0:01:58.11    
[2026-04-02T11:32:04.365Z] [hls @ 000001d2e7001840] Opening 'D:\GT CRM WEB PROJECT\gtgroupcrmproject\public\temp\streams\e08aa559-e1a8-46b1-a1e2-5217615a316c\index29.ts' for writing

[2026-04-02T11:32:04.366Z] [hls @ 000001d2e7001840] Opening 'D:\GT CRM WEB PROJECT\gtgroupcrmproject\public\temp\streams\e08aa559-e1a8-46b1-a1e2-5217615a316c\index.m3u8.tmp' for writing

[2026-04-02T11:32:04.774Z] frame= 1807 fps= 15 q=-1.0 size=N/A time=00:02:00.49 bitrate=N/A speed=1.02x elapsed=0:01:58.62    
[2026-04-02T11:32:05.289Z] frame= 1814 fps= 15 q=-1.0 size=N/A time=00:02:00.94 bitrate=N/A speed=1.02x elapsed=0:01:59.14    
[2026-04-02T11:32:05.805Z] frame= 1823 fps= 15 q=-1.0 size=N/A time=00:02:01.54 bitrate=N/A speed=1.02x elapsed=0:01:59.65    
[2026-04-02T11:32:06.320Z] frame= 1830 fps= 15 q=-1.0 size=N/A time=00:02:01.99 bitrate=N/A speed=1.02x elapsed=0:02:00.17    
[2026-04-02T11:32:06.837Z] frame= 1838 fps= 15 q=-1.0 size=N/A time=00:02:02.54 bitrate=N/A speed=1.02x elapsed=0:02:00.68    
[2026-04-02T11:32:07.350Z] frame= 1846 fps= 15 q=-1.0 size=N/A time=00:02:03.09 bitrate=N/A speed=1.02x elapsed=0:02:01.20    
[2026-04-02T11:32:07.864Z] frame= 1853 fps= 15 q=-1.0 size=N/A time=00:02:03.54 bitrate=N/A speed=1.02x elapsed=0:02:01.71    
[2026-04-02T11:32:08.379Z] frame= 1861 fps= 15 q=-1.0 size=N/A time=00:02:04.09 bitrate=N/A speed=1.02x elapsed=0:02:02.23    
[2026-04-02T11:32:08.486Z] [hls @ 000001d2e7001840] Opening 'D:\GT CRM WEB PROJECT\gtgroupcrmproject\public\temp\streams\e08aa559-e1a8-46b1-a1e2-5217615a316c\index30.ts' for writing

[2026-04-02T11:32:08.486Z] [hls @ 000001d2e7001840] Opening 'D:\GT CRM WEB PROJECT\gtgroupcrmproject\public\temp\streams\e08aa559-e1a8-46b1-a1e2-5217615a316c\index.m3u8.tmp' for writing

[2026-04-02T11:32:08.894Z] frame= 1868 fps= 15 q=-1.0 size=N/A time=00:02:04.54 bitrate=N/A speed=1.01x elapsed=0:02:02.74    
[2026-04-02T11:32:09.408Z] frame= 1877 fps= 15 q=-1.0 size=N/A time=00:02:05.15 bitrate=N/A speed=1.02x elapsed=0:02:03.26    
[2026-04-02T11:32:09.923Z] frame= 1884 fps= 15 q=-1.0 size=N/A time=00:02:05.60 bitrate=N/A speed=1.01x elapsed=0:02:03.77    
[2026-04-02T11:32:10.437Z] frame= 1892 fps= 15 q=-1.0 size=N/A time=00:02:06.15 bitrate=N/A speed=1.02x elapsed=0:02:04.28    
[2026-04-02T11:32:10.955Z] frame= 1900 fps= 15 q=-1.0 size=N/A time=00:02:06.70 bitrate=N/A speed=1.02x elapsed=0:02:04.80    
[2026-04-02T11:32:11.469Z] frame= 1907 fps= 15 q=-1.0 size=N/A time=00:02:07.15 bitrate=N/A speed=1.01x elapsed=0:02:05.32    
[2026-04-02T11:32:11.983Z] frame= 1915 fps= 15 q=-1.0 size=N/A time=00:02:07.70 bitrate=N/A speed=1.01x elapsed=0:02:05.83    
[2026-04-02T11:32:12.553Z] [hls @ 000001d2e7001840] Opening 'D:\GT CRM WEB PROJECT\gtgroupcrmproject\public\temp\streams\e08aa559-e1a8-46b1-a1e2-5217615a316c\index31.ts' for writing
[hls @ 000001d2e7001840] Opening 'D:\GT CRM WEB PROJECT\gtgroupcrmproject\public\temp\streams\e08aa559-e1a8-46b1-a1e2-5217615a316c\index.m3u8.tmp' for writing
frame= 1923 fps= 15 q=-1.0 size=N/A time=00:02:08.20 bitrate=N/A speed=1.01x elapsed=0:02:06.35    
[2026-04-02T11:32:13.018Z] frame= 1931 fps= 15 q=-1.0 size=N/A time=00:02:08.75 bitrate=N/A speed=1.01x elapsed=0:02:06.87    
[2026-04-02T11:32:13.533Z] frame= 1938 fps= 15 q=-1.0 size=N/A time=00:02:09.22 bitrate=N/A speed=1.01x elapsed=0:02:07.38    
[2026-04-02T11:32:14.049Z] frame= 1946 fps= 15 q=-1.0 size=N/A time=00:02:09.75 bitrate=N/A speed=1.01x elapsed=0:02:07.90    
[2026-04-02T11:32:14.568Z] frame= 1954 fps= 15 q=-1.0 size=N/A time=00:02:10.31 bitrate=N/A speed=1.01x elapsed=0:02:08.42    
[2026-04-02T11:32:15.081Z] frame= 1961 fps= 15 q=-1.0 size=N/A time=00:02:10.76 bitrate=N/A speed=1.01x elapsed=0:02:08.93    
[2026-04-02T11:32:15.597Z] frame= 1970 fps= 15 q=-1.0 size=N/A time=00:02:11.36 bitrate=N/A speed=1.01x elapsed=0:02:09.44    
[2026-04-02T11:32:16.112Z] frame= 1977 fps= 15 q=-1.0 size=N/A time=00:02:11.81 bitrate=N/A speed=1.01x elapsed=0:02:09.96    
[2026-04-02T11:32:16.410Z] [hls @ 000001d2e7001840] Opening 'D:\GT CRM WEB PROJECT\gtgroupcrmproject\public\temp\streams\e08aa559-e1a8-46b1-a1e2-5217615a316c\index32.ts' for writing

[2026-04-02T11:32:16.410Z] [hls @ 000001d2e7001840] Opening 'D:\GT CRM WEB PROJECT\gtgroupcrmproject\public\temp\streams\e08aa559-e1a8-46b1-a1e2-5217615a316c\index.m3u8.tmp' for writing

[2026-04-02T11:32:16.627Z] frame= 1985 fps= 15 q=-1.0 size=N/A time=00:02:12.36 bitrate=N/A speed=1.01x elapsed=0:02:10.48    
[2026-04-02T11:32:17.143Z] frame= 1992 fps= 15 q=-1.0 size=N/A time=00:02:12.81 bitrate=N/A speed=1.01x elapsed=0:02:10.99    
[2026-04-02T11:32:17.655Z] frame= 2000 fps= 15 q=-1.0 size=N/A time=00:02:13.36 bitrate=N/A speed=1.01x elapsed=0:02:11.50    
[2026-04-02T11:32:18.172Z] frame= 2008 fps= 15 q=-1.0 size=N/A time=00:02:13.91 bitrate=N/A speed=1.01x elapsed=0:02:12.02    
[2026-04-02T11:32:18.690Z] frame= 2015 fps= 15 q=-1.0 size=N/A time=00:02:14.36 bitrate=N/A speed=1.01x elapsed=0:02:12.54    
[2026-04-02T11:32:19.207Z] frame= 2024 fps= 15 q=-1.0 size=N/A time=00:02:14.96 bitrate=N/A speed=1.01x elapsed=0:02:13.06    
[2026-04-02T11:32:19.726Z] frame= 2031 fps= 15 q=-1.0 size=N/A time=00:02:15.41 bitrate=N/A speed=1.01x elapsed=0:02:13.57    
[2026-04-02T11:32:20.241Z] frame= 2039 fps= 15 q=-1.0 size=N/A time=00:02:15.96 bitrate=N/A speed=1.01x elapsed=0:02:14.09    
[2026-04-02T11:32:20.445Z] [hls @ 000001d2e7001840] Opening 'D:\GT CRM WEB PROJECT\gtgroupcrmproject\public\temp\streams\e08aa559-e1a8-46b1-a1e2-5217615a316c\index33.ts' for writing

[2026-04-02T11:32:20.446Z] [hls @ 000001d2e7001840] Opening 'D:\GT CRM WEB PROJECT\gtgroupcrmproject\public\temp\streams\e08aa559-e1a8-46b1-a1e2-5217615a316c\index.m3u8.tmp' for writing

[2026-04-02T11:32:20.761Z] frame= 2047 fps= 15 q=-1.0 size=N/A time=00:02:16.51 bitrate=N/A speed=1.01x elapsed=0:02:14.61    
[2026-04-02T11:32:21.277Z] frame= 2054 fps= 15 q=-1.0 size=N/A time=00:02:16.96 bitrate=N/A speed=1.01x elapsed=0:02:15.13    
[2026-04-02T11:32:21.780Z] frame= 2062 fps= 15 q=-1.0 size=N/A time=00:02:17.51 bitrate=N/A speed=1.01x elapsed=0:02:15.63    
[2026-04-02T11:32:22.298Z] frame= 2070 fps= 15 q=-1.0 size=N/A time=00:02:18.01 bitrate=N/A speed=1.01x elapsed=0:02:16.15    
[2026-04-02T11:32:22.814Z] frame= 2078 fps= 15 q=-1.0 size=N/A time=00:02:18.56 bitrate=N/A speed=1.01x elapsed=0:02:16.66    
[2026-04-02T11:32:23.330Z] frame= 2085 fps= 15 q=-1.0 size=N/A time=00:02:19.02 bitrate=N/A speed=1.01x elapsed=0:02:17.18    
[2026-04-02T11:32:23.847Z] frame= 2093 fps= 15 q=-1.0 size=N/A time=00:02:19.56 bitrate=N/A speed=1.01x elapsed=0:02:17.69    
[2026-04-02T11:32:24.366Z] frame= 2101 fps= 15 q=-1.0 size=N/A time=00:02:20.11 bitrate=N/A speed=1.01x elapsed=0:02:18.21    
[2026-04-02T11:32:24.408Z] [hls @ 000001d2e7001840] Opening 'D:\GT CRM WEB PROJECT\gtgroupcrmproject\public\temp\streams\e08aa559-e1a8-46b1-a1e2-5217615a316c\index34.ts' for writing

[2026-04-02T11:32:24.409Z] [hls @ 000001d2e7001840] Opening 'D:\GT CRM WEB PROJECT\gtgroupcrmproject\public\temp\streams\e08aa559-e1a8-46b1-a1e2-5217615a316c\index.m3u8.tmp' for writing

[2026-04-02T11:32:24.881Z] frame= 2108 fps= 15 q=-1.0 size=N/A time=00:02:20.56 bitrate=N/A speed=1.01x elapsed=0:02:18.73    
[2026-04-02T11:32:25.399Z] frame= 2117 fps= 15 q=-1.0 size=N/A time=00:02:21.16 bitrate=N/A speed=1.01x elapsed=0:02:19.25    
[2026-04-02T11:32:25.917Z] frame= 2124 fps= 15 q=-1.0 size=N/A time=00:02:21.61 bitrate=N/A speed=1.01x elapsed=0:02:19.76    
[2026-04-02T11:32:26.429Z] frame= 2132 fps= 15 q=-1.0 size=N/A time=00:02:22.16 bitrate=N/A speed=1.01x elapsed=0:02:20.28    
[2026-04-02T11:32:26.941Z] frame= 2139 fps= 15 q=-1.0 size=N/A time=00:02:22.61 bitrate=N/A speed=1.01x elapsed=0:02:20.79    
[2026-04-02T11:32:27.457Z] frame= 2147 fps= 15 q=-1.0 size=N/A time=00:02:23.16 bitrate=N/A speed=1.01x elapsed=0:02:21.30    
[2026-04-02T11:32:27.971Z] frame= 2155 fps= 15 q=-1.0 size=N/A time=00:02:23.71 bitrate=N/A speed=1.01x elapsed=0:02:21.82    
[2026-04-02T11:32:28.446Z] [hls @ 000001d2e7001840] Opening 'D:\GT CRM WEB PROJECT\gtgroupcrmproject\public\temp\streams\e08aa559-e1a8-46b1-a1e2-5217615a316c\index35.ts' for writing

[2026-04-02T11:32:28.447Z] [hls @ 000001d2e7001840] Opening 'D:\GT CRM WEB PROJECT\gtgroupcrmproject\public\temp\streams\e08aa559-e1a8-46b1-a1e2-5217615a316c\index.m3u8.tmp' for writing

[2026-04-02T11:32:28.485Z] frame= 2162 fps= 15 q=-1.0 size=N/A time=00:02:24.16 bitrate=N/A speed=1.01x elapsed=0:02:22.33    
[2026-04-02T11:32:29.001Z] frame= 2171 fps= 15 q=-1.0 size=N/A time=00:02:24.76 bitrate=N/A speed=1.01x elapsed=0:02:22.85    
[2026-04-02T11:32:29.513Z] frame= 2178 fps= 15 q=-1.0 size=N/A time=00:02:25.17 bitrate=N/A speed=1.01x elapsed=0:02:23.36    
[2026-04-02T11:32:30.030Z] frame= 2186 fps= 15 q=-1.0 size=N/A time=00:02:25.72 bitrate=N/A speed=1.01x elapsed=0:02:23.88    
[2026-04-02T11:32:30.545Z] frame= 2193 fps= 15 q=-1.0 size=N/A time=00:02:26.17 bitrate=N/A speed=1.01x elapsed=0:02:24.39    
[2026-04-02T11:32:31.059Z] frame= 2201 fps= 15 q=-1.0 size=N/A time=00:02:26.72 bitrate=N/A speed=1.01x elapsed=0:02:24.91    
[2026-04-02T11:32:31.590Z] frame= 2209 fps= 15 q=-1.0 size=N/A time=00:02:27.27 bitrate=N/A speed=1.01x elapsed=0:02:25.44    
[2026-04-02T11:32:32.103Z] frame= 2217 fps= 15 q=-1.0 size=N/A time=00:02:27.77 bitrate=N/A speed=1.01x elapsed=0:02:25.95    
[2026-04-02T11:32:32.410Z] [hls @ 000001d2e7001840] Opening 'D:\GT CRM WEB PROJECT\gtgroupcrmproject\public\temp\streams\e08aa559-e1a8-46b1-a1e2-5217615a316c\index36.ts' for writing

[2026-04-02T11:32:32.410Z] [hls @ 000001d2e7001840] Opening 'D:\GT CRM WEB PROJECT\gtgroupcrmproject\public\temp\streams\e08aa559-e1a8-46b1-a1e2-5217615a316c\index.m3u8.tmp' for writing

[2026-04-02T11:32:32.619Z] frame= 2225 fps= 15 q=-1.0 size=N/A time=00:02:28.32 bitrate=N/A speed=1.01x elapsed=0:02:26.47    
[2026-04-02T11:32:33.134Z] frame= 2232 fps= 15 q=-1.0 size=N/A time=00:02:28.77 bitrate=N/A speed=1.01x elapsed=0:02:26.98    
[2026-04-02T11:32:33.652Z] frame= 2240 fps= 15 q=-1.0 size=N/A time=00:02:29.32 bitrate=N/A speed=1.01x elapsed=0:02:27.50    
[2026-04-02T11:32:34.168Z] frame= 2248 fps= 15 q=-1.0 size=N/A time=00:02:29.87 bitrate=N/A speed=1.01x elapsed=0:02:28.02    
[2026-04-02T11:32:34.683Z] frame= 2255 fps= 15 q=-1.0 size=N/A time=00:02:30.32 bitrate=N/A speed=1.01x elapsed=0:02:28.53    
[2026-04-02T11:32:35.197Z] frame= 2264 fps= 15 q=-1.0 size=N/A time=00:02:30.92 bitrate=N/A speed=1.01x elapsed=0:02:29.04    
[2026-04-02T11:32:35.713Z] frame= 2271 fps= 15 q=-1.0 size=N/A time=00:02:31.37 bitrate=N/A speed=1.01x elapsed=0:02:29.56    
[2026-04-02T11:32:36.230Z] frame= 2279 fps= 15 q=-1.0 size=N/A time=00:02:31.92 bitrate=N/A speed=1.01x elapsed=0:02:30.08    
[2026-04-02T11:32:36.448Z] [hls @ 000001d2e7001840] Opening 'D:\GT CRM WEB PROJECT\gtgroupcrmproject\public\temp\streams\e08aa559-e1a8-46b1-a1e2-5217615a316c\index37.ts' for writing

[2026-04-02T11:32:36.449Z] [hls @ 000001d2e7001840] Opening 'D:\GT CRM WEB PROJECT\gtgroupcrmproject\public\temp\streams\e08aa559-e1a8-46b1-a1e2-5217615a316c\index.m3u8.tmp' for writing

[2026-04-02T11:32:36.747Z] frame= 2286 fps= 15 q=-1.0 size=N/A time=00:02:32.37 bitrate=N/A speed=1.01x elapsed=0:02:30.59    
[2026-04-02T11:32:37.263Z] frame= 2294 fps= 15 q=-1.0 size=N/A time=00:02:32.92 bitrate=N/A speed=1.01x elapsed=0:02:31.11    
[2026-04-02T11:32:37.793Z] frame= 2302 fps= 15 q=-1.0 size=N/A time=00:02:33.47 bitrate=N/A speed=1.01x elapsed=0:02:31.64    
[2026-04-02T11:32:38.306Z] frame= 2310 fps= 15 q=-1.0 size=N/A time=00:02:33.97 bitrate=N/A speed=1.01x elapsed=0:02:32.15    
[2026-04-02T11:32:38.820Z] frame= 2318 fps= 15 q=-1.0 size=N/A time=00:02:34.52 bitrate=N/A speed=1.01x elapsed=0:02:32.67    
[2026-04-02T11:32:39.338Z] frame= 2325 fps= 15 q=-1.0 size=N/A time=00:02:35.00 bitrate=N/A speed=1.01x elapsed=0:02:33.19    
[2026-04-02T11:32:39.853Z] frame= 2333 fps= 15 q=-1.0 size=N/A time=00:02:35.53 bitrate=N/A speed=1.01x elapsed=0:02:33.70    
[2026-04-02T11:32:40.369Z] frame= 2341 fps= 15 q=-1.0 size=N/A time=00:02:36.08 bitrate=N/A speed=1.01x elapsed=0:02:34.22    
[2026-04-02T11:32:40.404Z] [hls @ 000001d2e7001840] Opening 'D:\GT CRM WEB PROJECT\gtgroupcrmproject\public\temp\streams\e08aa559-e1a8-46b1-a1e2-5217615a316c\index38.ts' for writing

[2026-04-02T11:32:40.405Z] [hls @ 000001d2e7001840] Opening 'D:\GT CRM WEB PROJECT\gtgroupcrmproject\public\temp\streams\e08aa559-e1a8-46b1-a1e2-5217615a316c\index.m3u8.tmp' for writing

[2026-04-02T11:32:40.882Z] frame= 2348 fps= 15 q=-1.0 size=N/A time=00:02:36.53 bitrate=N/A speed=1.01x elapsed=0:02:34.73    
[2026-04-02T11:32:41.402Z] frame= 2357 fps= 15 q=-1.0 size=N/A time=00:02:37.13 bitrate=N/A speed=1.01x elapsed=0:02:35.25    
[2026-04-02T11:32:41.918Z] frame= 2364 fps= 15 q=-1.0 size=N/A time=00:02:37.58 bitrate=N/A speed=1.01x elapsed=0:02:35.76    
[2026-04-02T11:32:42.431Z] frame= 2372 fps= 15 q=-1.0 size=N/A time=00:02:38.13 bitrate=N/A speed=1.01x elapsed=0:02:36.28    
[2026-04-02T11:32:42.942Z] frame= 2379 fps= 15 q=-1.0 size=N/A time=00:02:38.58 bitrate=N/A speed=1.01x elapsed=0:02:36.79    
[2026-04-02T11:32:43.455Z] frame= 2387 fps= 15 q=-1.0 size=N/A time=00:02:39.13 bitrate=N/A speed=1.01x elapsed=0:02:37.30    
[2026-04-02T11:32:43.971Z] frame= 2395 fps= 15 q=-1.0 size=N/A time=00:02:39.68 bitrate=N/A speed=1.01x elapsed=0:02:37.82    
[2026-04-02T11:32:44.447Z] [hls @ 000001d2e7001840] Opening 'D:\GT CRM WEB PROJECT\gtgroupcrmproject\public\temp\streams\e08aa559-e1a8-46b1-a1e2-5217615a316c\index39.ts' for writing

[2026-04-02T11:32:44.448Z] [hls @ 000001d2e7001840] Opening 'D:\GT CRM WEB PROJECT\gtgroupcrmproject\public\temp\streams\e08aa559-e1a8-46b1-a1e2-5217615a316c\index.m3u8.tmp' for writing

[2026-04-02T11:32:44.484Z] frame= 2402 fps= 15 q=-1.0 size=N/A time=00:02:40.13 bitrate=N/A speed=1.01x elapsed=0:02:38.33    
[2026-04-02T11:32:44.998Z] frame= 2411 fps= 15 q=-1.0 size=N/A time=00:02:40.73 bitrate=N/A speed=1.01x elapsed=0:02:38.85    
[2026-04-02T11:32:45.525Z] frame= 2418 fps= 15 q=-1.0 size=N/A time=00:02:41.18 bitrate=N/A speed=1.01x elapsed=0:02:39.37    
[2026-04-02T11:32:46.042Z] frame= 2426 fps= 15 q=-1.0 size=N/A time=00:02:41.73 bitrate=N/A speed=1.01x elapsed=0:02:39.89    
[2026-04-02T11:32:46.556Z] frame= 2434 fps= 15 q=-1.0 size=N/A time=00:02:42.28 bitrate=N/A speed=1.01x elapsed=0:02:40.40    
[2026-04-02T11:32:47.073Z] frame= 2441 fps= 15 q=-1.0 size=N/A time=00:02:42.73 bitrate=N/A speed=1.01x elapsed=0:02:40.92    
[2026-04-02T11:32:47.585Z] frame= 2449 fps= 15 q=-1.0 size=N/A time=00:02:43.28 bitrate=N/A speed=1.01x elapsed=0:02:41.43    
[2026-04-02T11:32:48.100Z] frame= 2456 fps= 15 q=-1.0 size=N/A time=00:02:43.77 bitrate=N/A speed=1.01x elapsed=0:02:41.95    
[2026-04-02T11:32:48.403Z] [hls @ 000001d2e7001840] Opening 'D:\GT CRM WEB PROJECT\gtgroupcrmproject\public\temp\streams\e08aa559-e1a8-46b1-a1e2-5217615a316c\index40.ts' for writing

[2026-04-02T11:32:48.403Z] [hls @ 000001d2e7001840] Opening 'D:\GT CRM WEB PROJECT\gtgroupcrmproject\public\temp\streams\e08aa559-e1a8-46b1-a1e2-5217615a316c\index.m3u8.tmp' for writing

[2026-04-02T11:32:48.617Z] frame= 2465 fps= 15 q=-1.0 size=N/A time=00:02:44.33 bitrate=N/A speed=1.01x elapsed=0:02:42.46    
[2026-04-02T11:32:49.136Z] frame= 2472 fps= 15 q=-1.0 size=N/A time=00:02:44.78 bitrate=N/A speed=1.01x elapsed=0:02:42.98    
[2026-04-02T11:32:49.651Z] frame= 2480 fps= 15 q=-1.0 size=N/A time=00:02:45.34 bitrate=N/A speed=1.01x elapsed=0:02:43.50    
[2026-04-02T11:32:50.166Z] frame= 2488 fps= 15 q=-1.0 size=N/A time=00:02:45.89 bitrate=N/A speed=1.01x elapsed=0:02:44.01    
[2026-04-02T11:32:50.680Z] frame= 2495 fps= 15 q=-1.0 size=N/A time=00:02:46.34 bitrate=N/A speed=1.01x elapsed=0:02:44.53    
[2026-04-02T11:32:51.196Z] frame= 2503 fps= 15 q=-1.0 size=N/A time=00:02:46.89 bitrate=N/A speed=1.01x elapsed=0:02:45.04    
[2026-04-02T11:32:51.713Z] frame= 2511 fps= 15 q=-1.0 size=N/A time=00:02:47.39 bitrate=N/A speed=1.01x elapsed=0:02:45.56    
[2026-04-02T11:32:52.228Z] frame= 2519 fps= 15 q=-1.0 size=N/A time=00:02:47.94 bitrate=N/A speed=1.01x elapsed=0:02:46.08    
[2026-04-02T11:32:52.451Z] [hls @ 000001d2e7001840] Opening 'D:\GT CRM WEB PROJECT\gtgroupcrmproject\public\temp\streams\e08aa559-e1a8-46b1-a1e2-5217615a316c\index41.ts' for writing

[2026-04-02T11:32:52.452Z] [hls @ 000001d2e7001840] Opening 'D:\GT CRM WEB PROJECT\gtgroupcrmproject\public\temp\streams\e08aa559-e1a8-46b1-a1e2-5217615a316c\index.m3u8.tmp' for writing

[2026-04-02T11:32:52.743Z] frame= 2526 fps= 15 q=-1.0 size=N/A time=00:02:48.39 bitrate=N/A speed=1.01x elapsed=0:02:46.59    
[2026-04-02T11:32:53.257Z] frame= 2534 fps= 15 q=-1.0 size=N/A time=00:02:48.94 bitrate=N/A speed=1.01x elapsed=0:02:47.11    
[2026-04-02T11:32:53.774Z] frame= 2542 fps= 15 q=-1.0 size=N/A time=00:02:49.49 bitrate=N/A speed=1.01x elapsed=0:02:47.62    
[2026-04-02T11:32:54.289Z] frame= 2549 fps= 15 q=-1.0 size=N/A time=00:02:49.94 bitrate=N/A speed=1.01x elapsed=0:02:48.14    
[2026-04-02T11:32:54.803Z] frame= 2558 fps= 15 q=-1.0 size=N/A time=00:02:50.55 bitrate=N/A speed=1.01x elapsed=0:02:48.65    
[2026-04-02T11:32:55.322Z] frame= 2565 fps= 15 q=-1.0 size=N/A time=00:02:51.00 bitrate=N/A speed=1.01x elapsed=0:02:49.17    
[2026-04-02T11:32:55.837Z] frame= 2573 fps= 15 q=-1.0 size=N/A time=00:02:51.55 bitrate=N/A speed=1.01x elapsed=0:02:49.69    
[2026-04-02T11:32:56.353Z] frame= 2581 fps= 15 q=-1.0 size=N/A time=00:02:52.10 bitrate=N/A speed=1.01x elapsed=0:02:50.20    
[2026-04-02T11:32:56.485Z] [hls @ 000001d2e7001840] Opening 'D:\GT CRM WEB PROJECT\gtgroupcrmproject\public\temp\streams\e08aa559-e1a8-46b1-a1e2-5217615a316c\index42.ts' for writing

[2026-04-02T11:32:56.485Z] [hls @ 000001d2e7001840] Opening 'D:\GT CRM WEB PROJECT\gtgroupcrmproject\public\temp\streams\e08aa559-e1a8-46b1-a1e2-5217615a316c\index.m3u8.tmp' for writing

[2026-04-02T11:32:56.870Z] frame= 2588 fps= 15 q=-1.0 size=N/A time=00:02:52.55 bitrate=N/A speed=1.01x elapsed=0:02:50.72    
[2026-04-02T11:32:57.383Z] frame= 2596 fps= 15 q=-1.0 size=N/A time=00:02:53.10 bitrate=N/A speed=1.01x elapsed=0:02:51.23    
[2026-04-02T11:32:57.899Z] frame= 2604 fps= 15 q=-1.0 size=N/A time=00:02:53.60 bitrate=N/A speed=1.01x elapsed=0:02:51.75    
[2026-04-02T11:32:58.414Z] frame= 2612 fps= 15 q=-1.0 size=N/A time=00:02:54.15 bitrate=N/A speed=1.01x elapsed=0:02:52.26    
[2026-04-02T11:32:58.926Z] frame= 2619 fps= 15 q=-1.0 size=N/A time=00:02:54.60 bitrate=N/A speed=1.01x elapsed=0:02:52.77    
[2026-04-02T11:32:59.440Z] frame= 2627 fps= 15 q=-1.0 size=N/A time=00:02:55.15 bitrate=N/A speed=1.01x elapsed=0:02:53.29    
[2026-04-02T11:32:59.956Z] frame= 2635 fps= 15 q=-1.0 size=N/A time=00:02:55.70 bitrate=N/A speed=1.01x elapsed=0:02:53.80    
[2026-04-02T11:33:00.445Z] [hls @ 000001d2e7001840] Opening 'D:\GT CRM WEB PROJECT\gtgroupcrmproject\public\temp\streams\e08aa559-e1a8-46b1-a1e2-5217615a316c\index43.ts' for writing

[2026-04-02T11:33:00.446Z] [hls @ 000001d2e7001840] Opening 'D:\GT CRM WEB PROJECT\gtgroupcrmproject\public\temp\streams\e08aa559-e1a8-46b1-a1e2-5217615a316c\index.m3u8.tmp' for writing

[2026-04-02T11:33:00.470Z] frame= 2642 fps= 15 q=-1.0 size=N/A time=00:02:56.15 bitrate=N/A speed=1.01x elapsed=0:02:54.32    
[2026-04-02T11:33:00.988Z] frame= 2650 fps= 15 q=-1.0 size=N/A time=00:02:56.70 bitrate=N/A speed=1.01x elapsed=0:02:54.84    
[2026-04-02T11:33:01.501Z] frame= 2658 fps= 15 q=-1.0 size=N/A time=00:02:57.20 bitrate=N/A speed=1.01x elapsed=0:02:55.35    
[2026-04-02T11:33:02.017Z] frame= 2666 fps= 15 q=-1.0 size=N/A time=00:02:57.75 bitrate=N/A speed=1.01x elapsed=0:02:55.86    
[2026-04-02T11:33:02.533Z] frame= 2673 fps= 15 q=-1.0 size=N/A time=00:02:58.20 bitrate=N/A speed=1.01x elapsed=0:02:56.38    
[2026-04-02T11:33:03.046Z] frame= 2681 fps= 15 q=-1.0 size=N/A time=00:02:58.75 bitrate=N/A speed=1.01x elapsed=0:02:56.89    
[2026-04-02T11:33:03.561Z] frame= 2689 fps= 15 q=-1.0 size=N/A time=00:02:59.30 bitrate=N/A speed=1.01x elapsed=0:02:57.41    
[2026-04-02T11:33:04.077Z] frame= 2696 fps= 15 q=-1.0 size=N/A time=00:02:59.75 bitrate=N/A speed=1.01x elapsed=0:02:57.93    
[2026-04-02T11:33:04.490Z] [hls @ 000001d2e7001840] Opening 'D:\GT CRM WEB PROJECT\gtgroupcrmproject\public\temp\streams\e08aa559-e1a8-46b1-a1e2-5217615a316c\index44.ts' for writing

[2026-04-02T11:33:04.491Z] [hls @ 000001d2e7001840] Opening 'D:\GT CRM WEB PROJECT\gtgroupcrmproject\public\temp\streams\e08aa559-e1a8-46b1-a1e2-5217615a316c\index.m3u8.tmp' for writing

[2026-04-02T11:33:04.593Z] frame= 2704 fps= 15 q=-1.0 size=N/A time=00:03:00.31 bitrate=N/A speed=1.01x elapsed=0:02:58.44    
[2026-04-02T11:33:05.106Z] frame= 2712 fps= 15 q=-1.0 size=N/A time=00:03:00.81 bitrate=N/A speed=1.01x elapsed=0:02:58.95    
[2026-04-02T11:33:05.634Z] frame= 2720 fps= 15 q=-1.0 size=N/A time=00:03:01.36 bitrate=N/A speed=1.01x elapsed=0:02:59.48    
[2026-04-02T11:33:06.149Z] frame= 2727 fps= 15 q=-1.0 size=N/A time=00:03:01.84 bitrate=N/A speed=1.01x elapsed=0:03:00.00    
[2026-04-02T11:33:06.664Z] frame= 2735 fps= 15 q=-1.0 size=N/A time=00:03:02.36 bitrate=N/A speed=1.01x elapsed=0:03:00.51    
[2026-04-02T11:33:07.178Z] frame= 2743 fps= 15 q=-1.0 size=N/A time=00:03:02.91 bitrate=N/A speed=1.01x elapsed=0:03:01.03    
[2026-04-02T11:33:07.693Z] frame= 2750 fps= 15 q=-1.0 size=N/A time=00:03:03.36 bitrate=N/A speed=1.01x elapsed=0:03:01.54    
[2026-04-02T11:33:08.207Z] frame= 2759 fps= 15 q=-1.0 size=N/A time=00:03:03.96 bitrate=N/A speed=1.01x elapsed=0:03:02.06    
[2026-04-02T11:33:08.445Z] [hls @ 000001d2e7001840] Opening 'D:\GT CRM WEB PROJECT\gtgroupcrmproject\public\temp\streams\e08aa559-e1a8-46b1-a1e2-5217615a316c\index45.ts' for writing

[2026-04-02T11:33:08.446Z] [hls @ 000001d2e7001840] Opening 'D:\GT CRM WEB PROJECT\gtgroupcrmproject\public\temp\streams\e08aa559-e1a8-46b1-a1e2-5217615a316c\index.m3u8.tmp' for writing

[2026-04-02T11:33:08.724Z] frame= 2766 fps= 15 q=-1.0 size=N/A time=00:03:04.41 bitrate=N/A speed=1.01x elapsed=0:03:02.57    
[2026-04-02T11:33:09.240Z] frame= 2774 fps= 15 q=-1.0 size=N/A time=00:03:04.96 bitrate=N/A speed=1.01x elapsed=0:03:03.09    
[2026-04-02T11:33:09.753Z] frame= 2782 fps= 15 q=-1.0 size=N/A time=00:03:05.46 bitrate=N/A speed=1.01x elapsed=0:03:03.60    
[2026-04-02T11:33:10.270Z] frame= 2789 fps= 15 q=-1.0 size=N/A time=00:03:05.92 bitrate=N/A speed=1.01x elapsed=0:03:04.12    
[2026-04-02T11:33:10.785Z] frame= 2797 fps= 15 q=-1.0 size=N/A time=00:03:06.46 bitrate=N/A speed=1.01x elapsed=0:03:04.63    
[2026-04-02T11:33:11.298Z] frame= 2805 fps= 15 q=-1.0 size=N/A time=00:03:06.96 bitrate=N/A speed=1.01x elapsed=0:03:05.15    
[2026-04-02T11:33:11.815Z] frame= 2813 fps= 15 q=-1.0 size=N/A time=00:03:07.51 bitrate=N/A speed=1.01x elapsed=0:03:05.66    
[2026-04-02T11:33:12.330Z] frame= 2820 fps= 15 q=-1.0 size=N/A time=00:03:08.04 bitrate=N/A speed=1.01x elapsed=0:03:06.18    
[2026-04-02T11:33:12.412Z] [hls @ 000001d2e7001840] Opening 'D:\GT CRM WEB PROJECT\gtgroupcrmproject\public\temp\streams\e08aa559-e1a8-46b1-a1e2-5217615a316c\index46.ts' for writing

[2026-04-02T11:33:12.412Z] [hls @ 000001d2e7001840] Opening 'D:\GT CRM WEB PROJECT\gtgroupcrmproject\public\temp\streams\e08aa559-e1a8-46b1-a1e2-5217615a316c\index.m3u8.tmp' for writing

[2026-04-02T11:33:12.846Z] frame= 2828 fps= 15 q=-1.0 size=N/A time=00:03:08.51 bitrate=N/A speed=1.01x elapsed=0:03:06.69    
[2026-04-02T11:33:13.360Z] frame= 2836 fps= 15 q=-1.0 size=N/A time=00:03:09.06 bitrate=N/A speed=1.01x elapsed=0:03:07.21    
[2026-04-02T11:33:13.878Z] frame= 2843 fps= 15 q=-1.0 size=N/A time=00:03:09.52 bitrate=N/A speed=1.01x elapsed=0:03:07.73    
[2026-04-02T11:33:14.392Z] frame= 2851 fps= 15 q=-1.0 size=N/A time=00:03:10.06 bitrate=N/A speed=1.01x elapsed=0:03:08.24    
[2026-04-02T11:33:14.446Z] [aac @ 000001d2e763b900] Queue input is backward in time

[2026-04-02T11:33:14.569Z] [aost#0:1/aac @ 000001d2e7094400] Non-monotonic DTS; previous: 17116358, current: 17113674; changing to 17116359. This may result in incorrect timestamps in the output file.

[2026-04-02T11:33:14.907Z] frame= 2859 fps= 15 q=-1.0 size=N/A time=00:03:10.57 bitrate=N/A speed=1.01x elapsed=0:03:08.76    
[2026-04-02T11:33:15.429Z] frame= 2867 fps= 15 q=-1.0 size=N/A time=00:03:11.12 bitrate=N/A speed=1.01x elapsed=0:03:09.28    
[2026-04-02T11:33:15.947Z] frame= 2874 fps= 15 q=-1.0 size=N/A time=00:03:11.57 bitrate=N/A speed=1.01x elapsed=0:03:09.79    
[2026-04-02T11:33:16.455Z] [hls @ 000001d2e7001840] Opening 'D:\GT CRM WEB PROJECT\gtgroupcrmproject\public\temp\streams\e08aa559-e1a8-46b1-a1e2-5217615a316c\index47.ts' for writing

[2026-04-02T11:33:16.456Z] [hls @ 000001d2e7001840] Opening 'D:\GT CRM WEB PROJECT\gtgroupcrmproject\public\temp\streams\e08aa559-e1a8-46b1-a1e2-5217615a316c\index.m3u8.tmp' for writing

[2026-04-02T11:33:16.462Z] frame= 2882 fps= 15 q=-1.0 size=N/A time=00:03:12.12 bitrate=N/A speed=1.01x elapsed=0:03:10.31    
[2026-04-02T11:33:16.975Z] frame= 2890 fps= 15 q=-1.0 size=N/A time=00:03:12.67 bitrate=N/A speed=1.01x elapsed=0:03:10.82    
[2026-04-02T11:33:17.488Z] frame= 2897 fps= 15 q=-1.0 size=N/A time=00:03:13.12 bitrate=N/A speed=1.01x elapsed=0:03:11.34    
[2026-04-02T11:33:18.004Z] frame= 2906 fps= 15 q=-1.0 size=N/A time=00:03:13.72 bitrate=N/A speed=1.01x elapsed=0:03:11.85    
[2026-04-02T11:33:18.519Z] frame= 2913 fps= 15 q=-1.0 size=N/A time=00:03:14.17 bitrate=N/A speed=1.01x elapsed=0:03:12.37    
[2026-04-02T11:33:19.035Z] frame= 2921 fps= 15 q=-1.0 size=N/A time=00:03:14.72 bitrate=N/A speed=1.01x elapsed=0:03:12.88    
[2026-04-02T11:33:19.550Z] frame= 2929 fps= 15 q=-1.0 size=N/A time=00:03:15.28 bitrate=N/A speed=1.01x elapsed=0:03:13.40    
[2026-04-02T11:33:20.066Z] frame= 2936 fps= 15 q=-1.0 size=N/A time=00:03:15.73 bitrate=N/A speed=1.01x elapsed=0:03:13.91    
[2026-04-02T11:33:20.406Z] [hls @ 000001d2e7001840] Opening 'D:\GT CRM WEB PROJECT\gtgroupcrmproject\public\temp\streams\e08aa559-e1a8-46b1-a1e2-5217615a316c\index48.ts' for writing

[2026-04-02T11:33:20.407Z] [hls @ 000001d2e7001840] Opening 'D:\GT CRM WEB PROJECT\gtgroupcrmproject\public\temp\streams\e08aa559-e1a8-46b1-a1e2-5217615a316c\index.m3u8.tmp' for writing

[2026-04-02T11:33:20.579Z] frame= 2944 fps= 15 q=-1.0 size=N/A time=00:03:16.28 bitrate=N/A speed=1.01x elapsed=0:03:14.43    
[2026-04-02T11:33:21.092Z] frame= 2951 fps= 15 q=-1.0 size=N/A time=00:03:16.74 bitrate=N/A speed=1.01x elapsed=0:03:14.94    
[2026-04-02T11:33:21.610Z] frame= 2960 fps= 15 q=-1.0 size=N/A time=00:03:17.33 bitrate=N/A speed=1.01x elapsed=0:03:15.46    
[2026-04-02T11:33:22.125Z] frame= 2967 fps= 15 q=-1.0 size=N/A time=00:03:17.78 bitrate=N/A speed=1.01x elapsed=0:03:15.97    
[2026-04-02T11:33:22.640Z] frame= 2975 fps= 15 q=-1.0 size=N/A time=00:03:18.33 bitrate=N/A speed=1.01x elapsed=0:03:16.49    
[2026-04-02T11:33:23.155Z] frame= 2983 fps= 15 q=-1.0 size=N/A time=00:03:18.88 bitrate=N/A speed=1.01x elapsed=0:03:17.00    
[2026-04-02T11:33:23.670Z] frame= 2990 fps= 15 q=-1.0 size=N/A time=00:03:19.33 bitrate=N/A speed=1.01x elapsed=0:03:17.52    
[2026-04-02T11:33:24.188Z] frame= 2998 fps= 15 q=-1.0 size=N/A time=00:03:19.88 bitrate=N/A speed=1.01x elapsed=0:03:18.04    
[2026-04-02T11:33:24.455Z] [hls @ 000001d2e7001840] Opening 'D:\GT CRM WEB PROJECT\gtgroupcrmproject\public\temp\streams\e08aa559-e1a8-46b1-a1e2-5217615a316c\index49.ts' for writing

[2026-04-02T11:33:24.456Z] [hls @ 000001d2e7001840] Opening 'D:\GT CRM WEB PROJECT\gtgroupcrmproject\public\temp\streams\e08aa559-e1a8-46b1-a1e2-5217615a316c\index.m3u8.tmp' for writing

[2026-04-02T11:33:24.704Z] frame= 3006 fps= 15 q=-1.0 size=N/A time=00:03:20.39 bitrate=N/A speed=1.01x elapsed=0:03:18.55    
[2026-04-02T11:33:25.222Z] frame= 3014 fps= 15 q=-1.0 size=N/A time=00:03:20.94 bitrate=N/A speed=1.01x elapsed=0:03:19.07    
[2026-04-02T11:33:25.736Z] frame= 3021 fps= 15 q=-1.0 size=N/A time=00:03:21.42 bitrate=N/A speed=1.01x elapsed=0:03:19.58    
[2026-04-02T11:33:26.249Z] frame= 3029 fps= 15 q=-1.0 size=N/A time=00:03:21.94 bitrate=N/A speed=1.01x elapsed=0:03:20.10    
[2026-04-02T11:33:26.766Z] frame= 3037 fps= 15 q=-1.0 size=N/A time=00:03:22.49 bitrate=N/A speed=1.01x elapsed=0:03:20.61    
[2026-04-02T11:33:27.280Z] frame= 3044 fps= 15 q=-1.0 size=N/A time=00:03:22.94 bitrate=N/A speed=1.01x elapsed=0:03:21.13    
[2026-04-02T11:33:27.809Z] frame= 3053 fps= 15 q=-1.0 size=N/A time=00:03:23.54 bitrate=N/A speed=1.01x elapsed=0:03:21.66    
[2026-04-02T11:33:28.310Z] frame= 3060 fps= 15 q=-1.0 size=N/A time=00:03:23.99 bitrate=N/A speed=1.01x elapsed=0:03:22.16    
[2026-04-02T11:33:28.410Z] [hls @ 000001d2e7001840] Opening 'D:\GT CRM WEB PROJECT\gtgroupcrmproject\public\temp\streams\e08aa559-e1a8-46b1-a1e2-5217615a316c\index50.ts' for writing

[2026-04-02T11:33:28.411Z] [hls @ 000001d2e7001840] Opening 'D:\GT CRM WEB PROJECT\gtgroupcrmproject\public\temp\streams\e08aa559-e1a8-46b1-a1e2-5217615a316c\index.m3u8.tmp' for writing

[2026-04-02T11:33:28.839Z] frame= 3068 fps= 15 q=-1.0 size=N/A time=00:03:24.54 bitrate=N/A speed=1.01x elapsed=0:03:22.69    
[2026-04-02T11:33:29.340Z] frame= 3075 fps= 15 q=-1.0 size=N/A time=00:03:24.99 bitrate=N/A speed=1.01x elapsed=0:03:23.19    
[2026-04-02T11:33:29.870Z] frame= 3083 fps= 15 q=-1.0 size=N/A time=00:03:25.55 bitrate=N/A speed=1.01x elapsed=0:03:23.72    
[2026-04-02T11:33:30.387Z] frame= 3091 fps= 15 q=-1.0 size=N/A time=00:03:26.10 bitrate=N/A speed=1.01x elapsed=0:03:24.23    
[2026-04-02T11:33:30.903Z] frame= 3099 fps= 15 q=-1.0 size=N/A time=00:03:26.60 bitrate=N/A speed=1.01x elapsed=0:03:24.75    
[2026-04-02T11:33:31.420Z] frame= 3107 fps= 15 q=-1.0 size=N/A time=00:03:27.15 bitrate=N/A speed=1.01x elapsed=0:03:25.27    
[2026-04-02T11:33:31.950Z] frame= 3114 fps= 15 q=-1.0 size=N/A time=00:03:27.63 bitrate=N/A speed=1.01x elapsed=0:03:25.80    
[2026-04-02T11:33:32.454Z] [hls @ 000001d2e7001840] Opening 'D:\GT CRM WEB PROJECT\gtgroupcrmproject\public\temp\streams\e08aa559-e1a8-46b1-a1e2-5217615a316c\index51.ts' for writing

[2026-04-02T11:33:32.454Z] [hls @ 000001d2e7001840] Opening 'D:\GT CRM WEB PROJECT\gtgroupcrmproject\public\temp\streams\e08aa559-e1a8-46b1-a1e2-5217615a316c\index.m3u8.tmp' for writing

[2026-04-02T11:33:32.479Z] frame= 3122 fps= 15 q=-1.0 size=N/A time=00:03:28.15 bitrate=N/A speed=1.01x elapsed=0:03:26.33    
[2026-04-02T11:33:32.994Z] frame= 3130 fps= 15 q=-1.0 size=N/A time=00:03:28.70 bitrate=N/A speed=1.01x elapsed=0:03:26.84    
[2026-04-02T11:33:33.511Z] frame= 3138 fps= 15 q=-1.0 size=N/A time=00:03:29.20 bitrate=N/A speed=1.01x elapsed=0:03:27.36    
[2026-04-02T11:33:34.026Z] frame= 3146 fps= 15 q=-1.0 size=N/A time=00:03:29.75 bitrate=N/A speed=1.01x elapsed=0:03:27.87    
[2026-04-02T11:33:34.538Z] frame= 3153 fps= 15 q=-1.0 size=N/A time=00:03:30.20 bitrate=N/A speed=1.01x elapsed=0:03:28.39    
[2026-04-02T11:33:35.055Z] frame= 3161 fps= 15 q=-1.0 size=N/A time=00:03:30.76 bitrate=N/A speed=1.01x elapsed=0:03:28.90    
[2026-04-02T11:33:35.570Z] frame= 3169 fps= 15 q=-1.0 size=N/A time=00:03:31.31 bitrate=N/A speed=1.01x elapsed=0:03:29.42    
[2026-04-02T11:33:36.087Z] frame= 3176 fps= 15 q=-1.0 size=N/A time=00:03:31.76 bitrate=N/A speed=1.01x elapsed=0:03:29.93    
[2026-04-02T11:33:36.483Z] [hls @ 000001d2e7001840] Opening 'D:\GT CRM WEB PROJECT\gtgroupcrmproject\public\temp\streams\e08aa559-e1a8-46b1-a1e2-5217615a316c\index52.ts' for writing

[2026-04-02T11:33:36.484Z] [hls @ 000001d2e7001840] Opening 'D:\GT CRM WEB PROJECT\gtgroupcrmproject\public\temp\streams\e08aa559-e1a8-46b1-a1e2-5217615a316c\index.m3u8.tmp' for writing

[2026-04-02T11:33:36.603Z] frame= 3185 fps= 15 q=-1.0 size=N/A time=00:03:32.36 bitrate=N/A speed=1.01x elapsed=0:03:30.45    
[2026-04-02T11:33:37.118Z] frame= 3192 fps= 15 q=-1.0 size=N/A time=00:03:32.81 bitrate=N/A speed=1.01x elapsed=0:03:30.97    
[2026-04-02T11:33:37.633Z] frame= 3200 fps= 15 q=-1.0 size=N/A time=00:03:33.36 bitrate=N/A speed=1.01x elapsed=0:03:31.48    
[2026-04-02T11:33:38.148Z] frame= 3207 fps= 15 q=-1.0 size=N/A time=00:03:33.81 bitrate=N/A speed=1.01x elapsed=0:03:32.00    
[2026-04-02T11:33:38.664Z] frame= 3215 fps= 15 q=-1.0 size=N/A time=00:03:34.36 bitrate=N/A speed=1.01x elapsed=0:03:32.51    
[2026-04-02T11:33:39.179Z] frame= 3223 fps= 15 q=-1.0 size=N/A time=00:03:34.91 bitrate=N/A speed=1.01x elapsed=0:03:33.03    
[2026-04-02T11:33:39.695Z] frame= 3230 fps= 15 q=-1.0 size=N/A time=00:03:35.36 bitrate=N/A speed=1.01x elapsed=0:03:33.54    
[2026-04-02T11:33:40.212Z] frame= 3239 fps= 15 q=-1.0 size=N/A time=00:03:35.96 bitrate=N/A speed=1.01x elapsed=0:03:34.06    
[2026-04-02T11:33:40.449Z] [hls @ 000001d2e7001840] Opening 'D:\GT CRM WEB PROJECT\gtgroupcrmproject\public\temp\streams\e08aa559-e1a8-46b1-a1e2-5217615a316c\index53.ts' for writing

[2026-04-02T11:33:40.450Z] [hls @ 000001d2e7001840] Opening 'D:\GT CRM WEB PROJECT\gtgroupcrmproject\public\temp\streams\e08aa559-e1a8-46b1-a1e2-5217615a316c\index.m3u8.tmp' for writing

[2026-04-02T11:33:40.730Z] frame= 3246 fps= 15 q=-1.0 size=N/A time=00:03:36.41 bitrate=N/A speed=1.01x elapsed=0:03:34.58    
[2026-04-02T11:33:41.232Z] frame= 3254 fps= 15 q=-1.0 size=N/A time=00:03:36.96 bitrate=N/A speed=1.01x elapsed=0:03:35.08    
[2026-04-02T11:33:41.749Z] frame= 3262 fps= 15 q=-1.0 size=N/A time=00:03:37.51 bitrate=N/A speed=1.01x elapsed=0:03:35.60    
[2026-04-02T11:33:42.267Z] frame= 3269 fps= 15 q=-1.0 size=N/A time=00:03:37.96 bitrate=N/A speed=1.01x elapsed=0:03:36.11    
[2026-04-02T11:33:42.782Z] frame= 3277 fps= 15 q=-1.0 size=N/A time=00:03:38.51 bitrate=N/A speed=1.01x elapsed=0:03:36.63    
[2026-04-02T11:33:43.299Z] frame= 3285 fps= 15 q=-1.0 size=N/A time=00:03:39.01 bitrate=N/A speed=1.01x elapsed=0:03:37.15    
[2026-04-02T11:33:43.815Z] frame= 3293 fps= 15 q=-1.0 size=N/A time=00:03:39.56 bitrate=N/A speed=1.01x elapsed=0:03:37.66    
[2026-04-02T11:33:44.334Z] frame= 3300 fps= 15 q=-1.0 size=N/A time=00:03:40.01 bitrate=N/A speed=1.01x elapsed=0:03:38.18    
[2026-04-02T11:33:44.491Z] [hls @ 000001d2e7001840] Opening 'D:\GT CRM WEB PROJECT\gtgroupcrmproject\public\temp\streams\e08aa559-e1a8-46b1-a1e2-5217615a316c\index54.ts' for writing

[2026-04-02T11:33:44.492Z] [hls @ 000001d2e7001840] Opening 'D:\GT CRM WEB PROJECT\gtgroupcrmproject\public\temp\streams\e08aa559-e1a8-46b1-a1e2-5217615a316c\index.m3u8.tmp' for writing

[2026-04-02T11:33:44.850Z] frame= 3308 fps= 15 q=-1.0 size=N/A time=00:03:40.57 bitrate=N/A speed=1.01x elapsed=0:03:38.70    
[2026-04-02T11:33:45.363Z] frame= 3316 fps= 15 q=-1.0 size=N/A time=00:03:41.12 bitrate=N/A speed=1.01x elapsed=0:03:39.21    
[2026-04-02T11:33:45.876Z] frame= 3323 fps= 15 q=-1.0 size=N/A time=00:03:41.57 bitrate=N/A speed=1.01x elapsed=0:03:39.72    
[2026-04-02T11:33:46.392Z] frame= 3331 fps= 15 q=-1.0 size=N/A time=00:03:42.12 bitrate=N/A speed=1.01x elapsed=0:03:40.24    
[2026-04-02T11:33:46.903Z] frame= 3339 fps= 15 q=-1.0 size=N/A time=00:03:42.62 bitrate=N/A speed=1.01x elapsed=0:03:40.75    
[2026-04-02T11:33:47.419Z] frame= 3347 fps= 15 q=-1.0 size=N/A time=00:03:43.17 bitrate=N/A speed=1.01x elapsed=0:03:41.27    
[2026-04-02T11:33:47.947Z] frame= 3354 fps= 15 q=-1.0 size=N/A time=00:03:43.62 bitrate=N/A speed=1.01x elapsed=0:03:41.80    
[2026-04-02T11:33:48.457Z] [hls @ 000001d2e7001840] Opening 'D:\GT CRM WEB PROJECT\gtgroupcrmproject\public\temp\streams\e08aa559-e1a8-46b1-a1e2-5217615a316c\index55.ts' for writing

[2026-04-02T11:33:48.457Z] [hls @ 000001d2e7001840] Opening 'D:\GT CRM WEB PROJECT\gtgroupcrmproject\public\temp\streams\e08aa559-e1a8-46b1-a1e2-5217615a316c\index.m3u8.tmp' for writing

[2026-04-02T11:33:48.460Z] frame= 3362 fps= 15 q=-1.0 size=N/A time=00:03:44.17 bitrate=N/A speed=1.01x elapsed=0:03:42.31    
[2026-04-02T11:33:48.976Z] frame= 3370 fps= 15 q=-1.0 size=N/A time=00:03:44.72 bitrate=N/A speed=1.01x elapsed=0:03:42.82    
[2026-04-02T11:33:49.492Z] frame= 3377 fps= 15 q=-1.0 size=N/A time=00:03:45.17 bitrate=N/A speed=1.01x elapsed=0:03:43.34    
[2026-04-02T11:33:50.004Z] frame= 3386 fps= 15 q=-1.0 size=N/A time=00:03:45.78 bitrate=N/A speed=1.01x elapsed=0:03:43.85    
[2026-04-02T11:33:50.521Z] frame= 3393 fps= 15 q=-1.0 size=N/A time=00:03:46.23 bitrate=N/A speed=1.01x elapsed=0:03:44.37    
[2026-04-02T11:33:51.040Z] frame= 3401 fps= 15 q=-1.0 size=N/A time=00:03:46.78 bitrate=N/A speed=1.01x elapsed=0:03:44.89    
[2026-04-02T11:33:51.556Z] frame= 3409 fps= 15 q=-1.0 size=N/A time=00:03:47.33 bitrate=N/A speed=1.01x elapsed=0:03:45.40    
[2026-04-02T11:33:52.070Z] frame= 3416 fps= 15 q=-1.0 size=N/A time=00:03:47.78 bitrate=N/A speed=1.01x elapsed=0:03:45.92    
[2026-04-02T11:33:52.533Z] [hls @ 000001d2e7001840] Opening 'D:\GT CRM WEB PROJECT\gtgroupcrmproject\public\temp\streams\e08aa559-e1a8-46b1-a1e2-5217615a316c\index56.ts' for writing

[2026-04-02T11:33:52.534Z] [hls @ 000001d2e7001840] Opening 'D:\GT CRM WEB PROJECT\gtgroupcrmproject\public\temp\streams\e08aa559-e1a8-46b1-a1e2-5217615a316c\index.m3u8.tmp' for writing

[2026-04-02T11:33:52.583Z] frame= 3424 fps= 15 q=-1.0 size=N/A time=00:03:48.33 bitrate=N/A speed=1.01x elapsed=0:03:46.43    
[2026-04-02T11:33:53.104Z] frame= 3432 fps= 15 q=-1.0 size=N/A time=00:03:48.83 bitrate=N/A speed=1.01x elapsed=0:03:46.95    
[2026-04-02T11:33:53.619Z] frame= 3440 fps= 15 q=-1.0 size=N/A time=00:03:49.38 bitrate=N/A speed=1.01x elapsed=0:03:47.47    
[2026-04-02T11:33:54.135Z] frame= 3447 fps= 15 q=-1.0 size=N/A time=00:03:49.83 bitrate=N/A speed=1.01x elapsed=0:03:47.98    
[2026-04-02T11:33:54.651Z] frame= 3455 fps= 15 q=-1.0 size=N/A time=00:03:50.38 bitrate=N/A speed=1.01x elapsed=0:03:48.50    
[2026-04-02T11:33:55.167Z] frame= 3463 fps= 15 q=-1.0 size=N/A time=00:03:50.93 bitrate=N/A speed=1.01x elapsed=0:03:49.01    
[2026-04-02T11:33:55.679Z] frame= 3470 fps= 15 q=-1.0 size=N/A time=00:03:51.38 bitrate=N/A speed=1.01x elapsed=0:03:49.53    
[2026-04-02T11:33:56.194Z] frame= 3478 fps= 15 q=-1.0 size=N/A time=00:03:51.93 bitrate=N/A speed=1.01x elapsed=0:03:50.04    
[2026-04-02T11:33:56.523Z] [hls @ 000001d2e7001840] Opening 'D:\GT CRM WEB PROJECT\gtgroupcrmproject\public\temp\streams\e08aa559-e1a8-46b1-a1e2-5217615a316c\index57.ts' for writing

[2026-04-02T11:33:56.524Z] [hls @ 000001d2e7001840] Opening 'D:\GT CRM WEB PROJECT\gtgroupcrmproject\public\temp\streams\e08aa559-e1a8-46b1-a1e2-5217615a316c\index.m3u8.tmp' for writing

[2026-04-02T11:33:56.712Z] frame= 3486 fps= 15 q=-1.0 size=N/A time=00:03:52.43 bitrate=N/A speed=1.01x elapsed=0:03:50.56    
[2026-04-02T11:33:57.227Z] frame= 3494 fps= 15 q=-1.0 size=N/A time=00:03:52.98 bitrate=N/A speed=1.01x elapsed=0:03:51.08    
[2026-04-02T11:33:57.744Z] frame= 3501 fps= 15 q=-1.0 size=N/A time=00:03:53.43 bitrate=N/A speed=1.01x elapsed=0:03:51.59    
[2026-04-02T11:33:58.259Z] frame= 3509 fps= 15 q=-1.0 size=N/A time=00:03:53.98 bitrate=N/A speed=1.01x elapsed=0:03:52.11    
[2026-04-02T11:33:58.774Z] frame= 3517 fps= 15 q=-1.0 size=N/A time=00:03:54.53 bitrate=N/A speed=1.01x elapsed=0:03:52.62    
[2026-04-02T11:33:59.290Z] frame= 3524 fps= 15 q=-1.0 size=N/A time=00:03:54.98 bitrate=N/A speed=1.01x elapsed=0:03:53.14    
[2026-04-02T11:33:59.803Z] frame= 3533 fps= 15 q=-1.0 size=N/A time=00:03:55.58 bitrate=N/A speed=1.01x elapsed=0:03:53.65    
[2026-04-02T11:34:00.321Z] frame= 3540 fps= 15 q=-1.0 size=N/A time=00:03:56.03 bitrate=N/A speed=1.01x elapsed=0:03:54.17    
[2026-04-02T11:34:00.528Z] [hls @ 000001d2e7001840] Opening 'D:\GT CRM WEB PROJECT\gtgroupcrmproject\public\temp\streams\e08aa559-e1a8-46b1-a1e2-5217615a316c\index58.ts' for writing

[2026-04-02T11:34:00.529Z] [hls @ 000001d2e7001840] Opening 'D:\GT CRM WEB PROJECT\gtgroupcrmproject\public\temp\streams\e08aa559-e1a8-46b1-a1e2-5217615a316c\index.m3u8.tmp' for writing

[2026-04-02T11:34:00.837Z] frame= 3548 fps= 15 q=-1.0 size=N/A time=00:03:56.58 bitrate=N/A speed=1.01x elapsed=0:03:54.69    
[2026-04-02T11:34:01.351Z] frame= 3556 fps= 15 q=-1.0 size=N/A time=00:03:57.13 bitrate=N/A speed=1.01x elapsed=0:03:55.20    
[2026-04-02T11:34:01.867Z] frame= 3563 fps= 15 q=-1.0 size=N/A time=00:03:57.58 bitrate=N/A speed=1.01x elapsed=0:03:55.71    
[2026-04-02T11:34:02.383Z] frame= 3571 fps= 15 q=-1.0 size=N/A time=00:03:58.13 bitrate=N/A speed=1.01x elapsed=0:03:56.23    
[2026-04-02T11:34:02.901Z] frame= 3578 fps= 15 q=-1.0 size=N/A time=00:03:58.58 bitrate=N/A speed=1.01x elapsed=0:03:56.75    
[2026-04-02T11:34:03.414Z] frame= 3587 fps= 15 q=-1.0 size=N/A time=00:03:59.18 bitrate=N/A speed=1.01x elapsed=0:03:57.26    
[2026-04-02T11:34:03.929Z] frame= 3594 fps= 15 q=-1.0 size=N/A time=00:03:59.63 bitrate=N/A speed=1.01x elapsed=0:03:57.78    
[2026-04-02T11:34:04.444Z] frame= 3602 fps= 15 q=-1.0 size=N/A time=00:04:00.18 bitrate=N/A speed=1.01x elapsed=0:03:58.29    
[2026-04-02T11:34:04.489Z] [hls @ 000001d2e7001840] Opening 'D:\GT CRM WEB PROJECT\gtgroupcrmproject\public\temp\streams\e08aa559-e1a8-46b1-a1e2-5217615a316c\index59.ts' for writing

[2026-04-02T11:34:04.490Z] [hls @ 000001d2e7001840] Opening 'D:\GT CRM WEB PROJECT\gtgroupcrmproject\public\temp\streams\e08aa559-e1a8-46b1-a1e2-5217615a316c\index.m3u8.tmp' for writing

[2026-04-02T11:34:04.960Z] frame= 3610 fps= 15 q=-1.0 size=N/A time=00:04:00.74 bitrate=N/A speed=1.01x elapsed=0:03:58.81    
[2026-04-02T11:34:05.475Z] frame= 3617 fps= 15 q=-1.0 size=N/A time=00:04:01.19 bitrate=N/A speed=1.01x elapsed=0:03:59.32    
[2026-04-02T11:34:05.987Z] frame= 3625 fps= 15 q=-1.0 size=N/A time=00:04:01.74 bitrate=N/A speed=1.01x elapsed=0:03:59.84    
[2026-04-02T11:34:06.502Z] frame= 3633 fps= 15 q=-1.0 size=N/A time=00:04:02.24 bitrate=N/A speed=1.01x elapsed=0:04:00.35    
[2026-04-02T11:34:07.013Z] frame= 3641 fps= 15 q=-1.0 size=N/A time=00:04:02.79 bitrate=N/A speed=1.01x elapsed=0:04:00.86    
[2026-04-02T11:34:07.530Z] frame= 3648 fps= 15 q=-1.0 size=N/A time=00:04:03.24 bitrate=N/A speed=1.01x elapsed=0:04:01.38    
[2026-04-02T11:34:08.059Z] frame= 3656 fps= 15 q=-1.0 size=N/A time=00:04:03.79 bitrate=N/A speed=1.01x elapsed=0:04:01.91    
